<svg id="Layer_1" data-name="Layer 1" xmlns="http://www.w3.org/2000/svg" viewBox="0 0 277.85 84.1"><defs><style>.cls-1{fill:#ffb600;}.cls-2{fill:#002c40;}</style></defs><path class="cls-1" d="M251.07,27.94l-.37-.14c-.82.26-1.55-.07-2.4.4-.41-.69-.82-1.35-1.25-2l.18.65a3.32,3.32,0,0,1,.37,3.25,11.86,11.86,0,0,1-1,1.91l.95-.73a2.39,2.39,0,0,0,.08-1c.55-.15.92.42,1.39.61a9.19,9.19,0,0,0,2.2.29h0c.68-.44,3.8.14,3.83-1C255.12,28.54,252.22,28.26,251.07,27.94Zm-.44,2.55,0,0c-.39-.48-1.34-.12-1.8-1.06.22-.83,1.43-.9,2-.77l.52.16a2.24,2.24,0,0,1,2.18,1C253.45,30.39,251.05,30.48,250.63,30.49Z"/><path class="cls-1" d="M231.57,28.23q0,.66-1.41.66c-.94,0-1.41-.2-1.42-.64l0-5c0-.44.46-.66,1.4-.66s1.42.21,1.42.64Zm-1-5c0-.14-.14-.21-.43-.21h0c-.29,0-.43.07-.43.21l0,5c0,.15.14.22.43.21s.43-.07.43-.21Z"/><path class="cls-1" d="M246.21,30.83c-.06.37-.48.49-1.28.36s-1.16-.38-1.1-.74l.69-4.22c.06-.36.49-.48,1.28-.35s1.16.38,1.1.74Zm-.14-4.35c0-.11-.09-.19-.33-.23h0q-.36-.06-.39.12l-.69,4.21q0,.18.33.24t.39-.12Z"/><path class="cls-1" d="M241.47,30.31c-.05.5-.62.7-1.71.59s-1.6-.41-1.55-.91l.56-5.77c0-.5.62-.7,1.71-.59s1.61.41,1.56.91Zm-.57-5.88c0-.16-.14-.26-.47-.29h0c-.33,0-.5,0-.52.19l-.56,5.77c0,.17.14.26.46.29s.51,0,.52-.19Z"/><path class="cls-1" d="M234.64,28.58c0,.44-.54.64-1.54.59s-1.48-.3-1.46-.75l.27-5.16q0-.68,1.53-.6c1,.05,1.49.3,1.46.75Zm-.78-5.22c0-.15-.14-.23-.44-.24h0c-.3,0-.45.05-.46.19l-.26,5.17c0,.14.14.22.44.24s.46,0,.46-.2Z"/><path class="cls-1" d="M216.55,27.78c.09.4,0,.67-.94.89s-1.67.15-1.76-.24l-1.09-4.52c-.09-.39.31-.7,1.21-.91s1.71,0,1.8.37Zm-2-4.29c0-.13-.18-.16-.45-.1h0c-.27.06-.39.16-.36.28l1.09,4.53q0,.18.45.09c.27-.07.4-.16.36-.29Z"/><path class="cls-1" d="M223.38,27.88c0,.41-.18.71-1,.77s-1.5-.18-1.52-.59l-.32-4.67q0-.62,1.23-.69c.86-.06,1.31.11,1.33.51Zm-1.21-4.61c0-.13-.14-.18-.4-.16h0c-.25,0-.38.09-.37.22l.32,4.67c0,.13.14.19.4.17s.39-.09.38-.22Z"/><path class="cls-1" d="M228.56,27.9c0,.41,0,.65-.92.71s-1.8-.11-1.82-.52l-.33-4.67c0-.4.42-.64,1.33-.7s1.39.11,1.42.51Zm-1.28-4.6c0-.13-.15-.19-.42-.17h0c-.28,0-.41.1-.4.23l.32,4.67c0,.13.15.18.43.17s.41-.1.4-.23Z"/><path class="cls-1" d="M219,28.42l-2.35.21,0-.39.75-.07-.41-4.68-.76.07,0-.39,1.56-.13.45,5.06.79-.07Z"/><path class="cls-1" d="M221.12,28.48l-2.35.21,0-.39.76-.06-.42-4.68-.76.07,0-.39,1.56-.14.45,5.06.79-.07Z"/><path class="cls-1" d="M236.72,29.53l-2.59-.45.08-.43.83.15.89-5.14-.83-.14.07-.42,1.71.29-1,5.56.87.15Z"/><path class="cls-1" d="M244,31l-2.58-.44.07-.43.83.14.89-5.13-.83-.14.07-.42,1.71.29-1,5.56.87.15Z"/><path class="cls-1" d="M247.93,31.68l-2.32-.4.07-.39.74.13.8-4.6-.74-.13.06-.38,1.54.26-.86,5,.78.14Z"/><path class="cls-1" d="M238.57,29.62l-2.35-.23,0-.39.76.07.46-4.66-.76-.08,0-.38,1.56.15-.5,5,.79.08Z"/><path class="cls-1" d="M226.05,28.6l-2.5.14,0-.41.81,0-.28-5-.81.05,0-.42,1.66-.09.31,5.39.84-.05Z"/><path class="cls-1" d="M207.38,24.89s-.08,0-.1-.12,0-.15.05-.16l.54-.1s.08,0,.09.13,0,.14,0,.15Zm.52-.2s0,0,0,0h0s0,0,0,0l-.54.1s0,0,0,.05,0,0,0,0Z"/><path class="cls-1" d="M204.72,26.61c-.13.06-.25,0-.37-.23s-.11-.36,0-.43l1.45-.78c.12-.07.24,0,.36.23s.11.36,0,.43Zm1.32-1s.05-.07,0-.13h0c0-.07-.07-.09-.11-.07l-1.45.78s0,.06,0,.13.08.09.12.07Z"/><path class="cls-1" d="M207.08,26.35c-.15.08-.3,0-.44-.28s-.14-.45,0-.53l1.71-.91c.14-.08.29,0,.43.28s.15.45,0,.53Zm1.55-1.2c.05,0,.05-.07,0-.16h0c0-.08-.08-.11-.13-.08l-1.71.92s0,.07,0,.15.09.11.14.09Z"/><path class="cls-1" d="M209.14,25.24c-.12,0-.21,0-.28-.26s0-.33.08-.37l1.33-.42q.18,0,.27.27c.07.21.05.33-.07.37Zm1.26-.63s0-.05,0-.12h0c0-.06-.05-.09-.09-.07l-1.33.41s0,.05,0,.11.05.09.09.08Z"/><path class="cls-1" d="M208.67,24.6c-.07,0-.12,0-.15-.16s0-.18.07-.2l.85-.19q.12,0,.15.15c0,.12,0,.19-.07.21Zm.82-.32s0,0,0-.06h0s0,0-.05,0l-.85.19s0,0,0,.07,0,.05,0,0Z"/><path class="cls-1" d="M210.74,24.68c-.06,0-.1,0-.12-.14s0-.15.07-.17l.73-.12c.06,0,.1,0,.12.14s0,.15-.07.16Zm.71-.23s0,0,0-.05h0s0,0,0,0l-.73.12s0,0,0,.05,0,0,0,0Z"/><path class="cls-1" d="M205.06,27.52c-.14.08-.28,0-.42-.25s-.15-.41,0-.49l1.57-.93c.14-.08.28,0,.42.25s.15.41,0,.49Zm1.41-1.19q.08,0,0-.15h0c0-.07-.08-.1-.13-.07l-1.56.93c-.05,0-.05.08,0,.15s.09.1.14.07Z"/><path class="cls-1" d="M205.22,25l.18.46-.08,0-.06-.15-.93.36,0,.15-.07,0-.12-.31,1-.39-.06-.15Z"/><path class="cls-1" d="M207.17,24.69l.24.48-.07,0-.08-.16-.87.44.08.15-.07,0-.16-.32.94-.47-.08-.16Z"/><path class="cls-1" d="M208.42,24.16v.53h-.12v-.17h-1.36v.17h-.11v-.35h1.47v-.18Z"/><path class="cls-1" d="M186.16,26.48c-.09,0-.17,0-.23-.21s0-.26,0-.29l1.06-.37c.09,0,.16,0,.22.2s0,.27,0,.3Zm1-.54s0,0,0-.09h0c0-.05,0-.07-.07-.06l-1,.36s0,0,0,.09,0,.07.07.06Z"/><path class="cls-1" d="M189.58,25.44c-.12,0-.2-.06-.25-.27s0-.32.09-.35l1.31-.33c.11,0,.2.06.25.27s0,.33-.09.36Zm1.25-.54s0,0,0-.11h0c0-.06,0-.09-.08-.08l-1.3.33s0,0,0,.1.05.09.08.08Z"/><path class="cls-1" d="M191.49,25c-.13,0-.22-.09-.26-.33s0-.38.13-.4l1.52-.28c.13,0,.22.08.27.32s0,.38-.14.4Zm1.48-.54s.05,0,0-.12h0c0-.07,0-.11-.08-.1l-1.53.28s-.05,0,0,.12,0,.11.09.1Z"/><path class="cls-1" d="M193.62,24.63c-.14,0-.24-.09-.29-.35s0-.4.14-.43l1.62-.29c.14,0,.23.09.28.34s0,.4-.14.43Zm1.56-.57s.06,0,0-.13h0c0-.08,0-.11-.09-.11l-1.62.3s-.06.05,0,.13,0,.11.09.11Z"/><path class="cls-1" d="M198.33,24c-.18,0-.28-.13-.31-.44s0-.47.23-.49l2-.17c.18,0,.28.13.3.44s0,.48-.22.49Zm2-.49c.06,0,.08-.06.08-.15h0c0-.1,0-.14-.1-.14l-2,.18c-.05,0-.08.05-.07.14s0,.14.1.14Z"/><path class="cls-1" d="M201,23.83q-.27,0-.3-.48t.24-.51l2.08-.13q.27,0,.3.48c0,.34-.06.51-.24.52Zm2.06-.47c.06,0,.08-.05.08-.15h0c0-.1,0-.15-.1-.15l-2.08.13c-.06,0-.09,0-.08.15s0,.15.1.15Z"/><path class="cls-1" d="M203.78,23.79c-.19,0-.29-.18-.29-.54s.09-.53.29-.53H206c.19,0,.29.18.29.53s-.09.54-.29.54Zm2.24-.38c.06,0,.09-.06.09-.16h0c0-.1,0-.16-.09-.16h-2.24c-.07,0-.1.05-.1.16s0,.16.1.16Z"/><path class="cls-1" d="M209.46,24.07c-.22,0-.3-.23-.26-.63s.17-.58.38-.56l2.5.25c.21,0,.3.23.26.63s-.17.58-.39.56Zm2.54-.16c.07,0,.11-.05.12-.17h0c0-.12,0-.19-.09-.19l-2.49-.26c-.07,0-.11.05-.12.17s0,.19.08.19Z"/><path class="cls-1" d="M179.31,29.27l.13.3-.05,0,0-.1-.62.28.05.1-.05,0-.09-.2.66-.3,0-.1Z"/><path class="cls-1" d="M180.42,28.55l.19.41-.07,0-.06-.13-.85.38.06.13-.06,0-.13-.28.92-.41-.07-.14Z"/><path class="cls-1" d="M181.5,28l.18.42-.07,0-.06-.13-.84.38.06.13-.07,0-.13-.27.92-.42-.07-.14Z"/><path class="cls-1" d="M182.72,27.29l.21.46-.08,0-.06-.15-.94.43.06.15-.07,0-.14-.3,1-.46-.07-.16Z"/><path class="cls-1" d="M184.1,26.76l.17.48-.08,0-.06-.16-1,.35.05.15-.08,0-.11-.31,1-.38,0-.16Z"/><path class="cls-1" d="M185.67,26l.21.58-.1,0-.06-.19-1.2.43.07.19-.1,0-.14-.39,1.29-.46-.07-.2Z"/><path class="cls-1" d="M189,24.83l.19.71-.12,0-.06-.23-1.44.38.06.23-.11,0-.13-.46,1.56-.42-.07-.23Z"/><path class="cls-1" d="M197.82,23.11l.08,1h-.17l0-.31-2,.15,0,.32h-.17l0-.65,2.16-.16,0-.33Z"/><path class="cls-1" d="M209.14,22.83,209.06,24h-.2l0-.37-2.33-.17,0,.37-.19,0,.05-.76,2.52.19,0-.38Z"/><path class="cls-1" d="M206.82,24.17c-.14,0-.21-.13-.19-.36s.1-.33.25-.32l1.68.14c.15,0,.21.13.2.35s-.1.34-.25.33Zm1.71-.1s.07,0,.08-.1h0c0-.07,0-.1-.07-.11l-1.68-.13c-.05,0-.08,0-.08.09s0,.11.06.11Z"/><path class="cls-1" d="M188.77,27.66q-.09,0-.15-.15c-.05-.11,0-.18,0-.21l.69-.27c.06,0,.11,0,.16.14s0,.19,0,.22Zm.65-.4s0,0,0-.06h0s0-.05-.05-.05l-.7.28s0,0,0,.06,0,.05,0,0Z"/><path class="cls-1" d="M191.07,26.78c-.07,0-.13,0-.18-.16s0-.22,0-.25l.86-.28c.07,0,.13,0,.18.16s0,.22-.05.24Zm.81-.43s0,0,0-.07h0s0-.06-.06-.05l-.85.29s0,0,0,.07,0,.06.05.05Z"/><path class="cls-1" d="M192.3,26.38c-.08,0-.15,0-.19-.2s0-.25.07-.27l1-.27c.09,0,.15,0,.2.2s0,.25-.07.27Zm1-.43s0,0,0-.09h0a.07.07,0,0,0-.06-.06l-1,.27s0,0,0,.09,0,.07.06.06Z"/><path class="cls-1" d="M193.73,26q-.14,0-.21-.21c0-.17,0-.27.07-.29l1.06-.29c.09,0,.16,0,.21.22s0,.26-.07.29Zm1-.46s0,0,0-.09h0q0-.08-.06-.06l-1.06.28s0,0,0,.09,0,.08.06.07Z"/><path class="cls-1" d="M196.91,25.22q-.16,0-.21-.27c0-.19,0-.3.11-.32l1.24-.21q.15,0,.21.27c0,.2,0,.3-.11.32Zm1.2-.41s0,0,0-.1h0c0-.06,0-.09-.07-.08l-1.23.21s0,0,0,.09,0,.09.07.08Z"/><path class="cls-1" d="M198.64,25c-.13,0-.21-.09-.25-.33s0-.36.15-.38l1.49-.21c.12,0,.21.09.24.33s0,.36-.14.38Zm1.45-.46s.06,0,0-.11h0c0-.08,0-.11-.08-.1l-1.49.21s-.06.05,0,.12,0,.1.08.1Z"/><path class="cls-1" d="M200.69,24.7c-.13,0-.21-.1-.24-.33s0-.37.15-.38l1.5-.18c.13,0,.2.09.23.33s0,.37-.15.38Zm1.46-.43s.06,0,0-.11h0c0-.07,0-.11-.07-.1l-1.5.18s-.06,0,0,.11,0,.11.08.1Z"/><path class="cls-1" d="M202.66,24.38c-.11,0-.16-.1-.16-.3s.05-.29.15-.29h1.21c.1,0,.16.1.16.29s-.05.3-.16.3Zm1.2-.22s0,0,0-.09h0c0-.06,0-.09,0-.09h-1.21s-.05,0-.05.09,0,.09.06.09Z"/><path class="cls-1" d="M184.14,29.74l.11.19,0,0,0-.06-.39.22,0,.06,0,0-.07-.13.42-.23,0-.07Z"/><path class="cls-1" d="M184.87,29.22l.15.26-.05,0,0-.08-.54.3,0,.09,0,0-.1-.17.59-.33,0-.09Z"/><path class="cls-1" d="M185.67,28.78l.14.26,0,0-.05-.09-.54.3,0,.09,0,0-.09-.17.58-.33,0-.09Z"/><path class="cls-1" d="M186.51,28.33l.15.3,0,0-.05-.1-.62.3.05.1-.05,0-.1-.2.67-.33,0-.1Z"/><path class="cls-1" d="M187.37,27.92l.14.31,0,0,0-.1-.63.29,0,.09-.05,0-.09-.21.68-.3-.05-.11Z"/><path class="cls-1" d="M188.38,27.4l.18.37-.06,0-.06-.12-.76.37.06.12-.07,0-.12-.25.83-.4-.06-.12Z"/><path class="cls-1" d="M190.64,26.44l.16.46-.07,0-.06-.15-.93.33,0,.15-.07,0-.11-.31,1-.36-.06-.15Z"/><path class="cls-1" d="M196.45,24.64l.15.64-.11,0-.05-.2-1.3.29,0,.2-.1,0-.1-.43,1.41-.31,0-.22Z"/><path class="cls-1" d="M206.34,23.66l0,.82h-.16v-.26l-1.85-.09,0,.26h-.15l0-.54,2,.09v-.27Z"/><path class="cls-1" d="M192.68,30.16c-.06,0-.12,0-.18-.13s-.06-.19,0-.22l.69-.34c.06,0,.12,0,.18.13s.06.19,0,.22Zm.63-.46s0,0,0-.07h0s0-.05-.06,0l-.69.34s0,0,0,.07,0,.05.06,0Z"/><path class="cls-1" d="M195,29.05c-.08,0-.15,0-.21-.15s-.05-.22,0-.25l.85-.38c.08,0,.14,0,.2.16s.06.22,0,.25Zm.79-.51s0,0,0-.08h0s0-.06-.06-.05l-.86.38s0,0,0,.08,0,.05.06,0Z"/><path class="cls-1" d="M196.22,28.53c-.09,0-.16,0-.22-.19s-.05-.25,0-.29l1-.36c.08,0,.16,0,.22.19s0,.25-.05.29Zm.94-.53s0,0,0-.09h0c0-.05,0-.07-.07-.06l-1,.37s0,0,0,.09,0,.07.06.06Z"/><path class="cls-1" d="M197.66,28c-.1,0-.17,0-.24-.2s0-.27.05-.31l1.07-.39c.09,0,.17,0,.23.21s0,.27,0,.3Zm1-.57s0,0,0-.09h0s-.05-.07-.08-.06l-1.07.39s0,0,0,.09,0,.08.07.07Z"/><path class="cls-1" d="M200.88,26.92c-.11,0-.19-.05-.24-.25s0-.32.08-.35L202,26c.11,0,.19.06.24.26s0,.31-.08.34Zm1.2-.53s0,0,0-.1h0c0-.06,0-.08-.07-.07l-1.26.32s-.05,0,0,.11,0,.08.07.07Z"/><path class="cls-1" d="M202.55,26.55c-.14,0-.23-.07-.29-.32s0-.37.12-.4l1.52-.36c.13,0,.23.08.28.32s0,.38-.11.41ZM204,26s.05-.05,0-.13h0q0-.11-.09-.09l-1.52.35c-.05,0-.06.05,0,.12s0,.11.09.1Z"/><path class="cls-1" d="M188.06,32.73l.13.19,0,0,0-.06-.39.26,0,.06,0,0-.08-.12.42-.29-.05-.06Z"/><path class="cls-1" d="M188.78,32.12l.17.26,0,0-.06-.08-.53.35.05.09,0,0-.12-.17.58-.39-.06-.09Z"/><path class="cls-1" d="M189.56,31.6l.18.26-.05,0-.06-.09-.53.36.06.08,0,0L189,32.1l.57-.39,0-.08Z"/><path class="cls-1" d="M190.39,31.06l.18.3,0,0-.06-.1-.61.37.06.09,0,0-.12-.2.66-.39-.06-.1Z"/><path class="cls-1" d="M191.25,30.56l.17.3,0,0-.06-.1-.62.35.06.1-.06,0-.11-.2.67-.38-.05-.1Z"/><path class="cls-1" d="M192.25,29.93l.22.37-.07,0-.07-.12-.75.44.07.12-.07,0-.14-.25.82-.48-.07-.13Z"/><path class="cls-1" d="M194.5,28.74l.21.46-.08,0-.07-.15-.93.42.07.15-.08,0-.14-.31,1-.46-.07-.15Z"/><path class="cls-1" d="M200.35,26.36l.21.65-.11,0-.07-.21-1.32.41.07.21-.11,0-.14-.43,1.43-.45-.07-.22Z"/><path class="cls-1" d="M193.09,31.56c-.06,0-.12,0-.18-.13s-.07-.19,0-.22l.67-.37q.09-.06.18.12c.07.11.07.19,0,.22Zm.61-.5s0,0,0-.07h0s0,0-.05,0l-.68.37a.08.08,0,0,0,0,.07s0,.05.06,0Z"/><path class="cls-1" d="M195.33,30.33c-.07,0-.14,0-.21-.14s-.06-.22,0-.26l.84-.42c.07,0,.14,0,.2.15s.07.22,0,.25Zm.76-.56s0,0,0-.07h0s0-.06-.07-.05l-.83.42s0,0,0,.08.05.05.07,0Z"/><path class="cls-1" d="M196.55,29.67c-.09,0-.17,0-.23-.18s-.06-.26,0-.29l1-.42c.09,0,.16,0,.23.18s.06.25,0,.29Zm.91-.59s0,0,0-.08h0c0-.05,0-.07-.07-.06l-1,.42s0,0,0,.09,0,.07.08.05Z"/><path class="cls-1" d="M199.51,28.41c-.1,0-.18,0-.26-.21s-.07-.29,0-.33l1.13-.48c.1,0,.19,0,.26.2s.07.29,0,.34Zm1.05-.67s0,0,0-.1h0c0-.06,0-.08-.08-.06l-1.13.48s0,0,0,.1.05.07.08.06Z"/><path class="cls-1" d="M188.62,34.36l.13.18,0,0,0-.06-.37.28,0,.06,0,0-.09-.12.4-.31,0-.06Z"/><path class="cls-1" d="M189.3,33.71l.18.25,0,0-.06-.08-.51.38.06.08,0,0-.13-.16.56-.42-.07-.08Z"/><path class="cls-1" d="M190.05,33.15l.19.25,0,0-.06-.08-.52.39.06.08,0,0-.12-.17.55-.41-.06-.09Z"/><path class="cls-1" d="M190.86,32.57l.19.29-.05,0-.06-.09-.6.4.07.09,0,0-.13-.19.64-.43-.06-.1Z"/><path class="cls-1" d="M191.68,32l.19.29-.05,0-.06-.09-.6.38.06.1-.05,0-.13-.2.66-.41-.07-.1Z"/><path class="cls-1" d="M192.65,31.35l.24.35-.06.05-.08-.12-.73.48.07.12-.06,0-.15-.24.79-.52-.08-.12Z"/><path class="cls-1" d="M194.84,30l.23.45-.08,0-.07-.14-.91.47.07.15L194,31l-.16-.29,1-.52-.08-.15Z"/><path class="cls-1" d="M198.94,28l.22.59-.1,0L199,28.4l-1.2.45.07.19-.1,0-.15-.4,1.31-.48-.08-.2Z"/><path class="cls-1" d="M202.32,26.53l.25.71-.12,0-.08-.23-1.44.51.08.23-.12,0-.16-.47,1.56-.55-.09-.23Z"/><path class="cls-1" d="M204.22,26.1l.16.68-.11,0-.06-.22-1.38.33.06.22-.12,0-.11-.45,1.5-.36-.06-.23Z"/><path class="cls-1" d="M195.88,31.54c-.06,0-.11,0-.17-.11s-.07-.17,0-.2l.61-.35c.05,0,.11,0,.17.12s.06.17,0,.2Zm.54-.45s0,0,0-.06h0s0-.05,0,0l-.61.35s0,0,0,.06,0,.05.05,0Z"/><path class="cls-1" d="M197.9,30.41c-.06,0-.12,0-.19-.13s-.06-.2,0-.23l.76-.39c.06,0,.13,0,.19.13s.06.2,0,.23Zm.7-.51s0,0,0-.07h0s0,0-.06,0l-.76.39s0,0,0,.07,0,.05.06,0Z"/><path class="cls-1" d="M199,29.87c-.07,0-.14,0-.21-.16s0-.23,0-.27l.89-.39c.08,0,.15,0,.21.17s.06.23,0,.26Zm.83-.54s0,0,0-.08h0s0-.06-.06-.05l-.9.39s0,0,0,.08,0,.06.07,0Z"/><path class="cls-1" d="M200.28,29.3c-.08,0-.15,0-.22-.17s-.06-.25,0-.28l.95-.42c.09,0,.16,0,.23.17s.05.25,0,.29Zm.88-.57s0,0,0-.09h0s0-.06-.07-.05l-.95.41a.07.07,0,0,0,0,.09c0,.05.05.06.07.05Z"/><path class="cls-1" d="M203.17,28.12c-.11,0-.2-.05-.27-.26s-.05-.34.07-.38l1.33-.43c.12,0,.21.05.28.26s0,.34-.07.38Zm1.27-.65s0,0,0-.12h0c0-.06-.05-.09-.08-.08l-1.34.44s0,.05,0,.11.05.09.09.08Z"/><path class="cls-1" d="M191.83,34.13l.12.17,0,0-.05,0-.33.25,0,.06,0,0-.08-.11.36-.28,0-.06Z"/><path class="cls-1" d="M192.44,33.54l.17.23,0,0,0-.08-.47.36.06.07,0,0L192,34l.5-.39-.06-.07Z"/><path class="cls-1" d="M193.12,33l.18.23,0,0-.06-.08-.46.36,0,.07,0,0-.12-.15.5-.38-.06-.08Z"/><path class="cls-1" d="M193.85,32.48l.18.27,0,0-.06-.09-.54.37.06.08,0,0-.12-.17.59-.4-.06-.09Z"/><path class="cls-1" d="M194.6,32l.17.27,0,0-.06-.09-.54.36.05.08,0,0-.12-.18.59-.38-.05-.09Z"/><path class="cls-1" d="M195.47,31.36l.22.32-.05,0-.07-.11-.67.45.07.11-.05,0-.15-.21.72-.49-.07-.11Z"/><path class="cls-1" d="M197.46,30.15l.21.41-.07,0-.07-.13-.82.43.06.13-.06,0-.15-.27.9-.47-.07-.14Z"/><path class="cls-1" d="M202.64,27.67l.22.58-.09,0-.07-.18-1.18.45.07.19-.1,0-.15-.38,1.28-.49-.07-.19Z"/><path class="cls-1" d="M191.2,28.21c-.06,0-.12,0-.16-.15s0-.2,0-.22l.71-.28c.07,0,.12,0,.17.15s0,.19,0,.22Zm.67-.41s0,0,0-.07h0s0-.05-.06,0l-.71.28s0,0,0,.06,0,.06.05,0Z"/><path class="cls-1" d="M193.58,27.3c-.07,0-.14,0-.19-.17s0-.22.05-.25l.88-.3c.08,0,.14,0,.19.17s0,.23,0,.25Zm.84-.45s0,0,0-.07h0s0-.06-.06-.05l-.88.3s0,0,0,.07,0,.06.06,0Z"/><path class="cls-1" d="M194.86,26.89c-.09,0-.16-.05-.2-.21s0-.26.07-.28l1-.28c.09,0,.15,0,.2.21s0,.25-.07.28Zm1-.45s0,0,0-.09h0c0-.05,0-.07-.07-.06l-1,.28s0,0,0,.08,0,.08.06.07Z"/><path class="cls-1" d="M196.34,26.47c-.1,0-.17,0-.22-.22s0-.27.07-.3l1.1-.3c.1,0,.17.05.21.22s0,.28-.07.31Zm1-.48s0,0,0-.09h0s0-.07-.07-.06l-1.1.29s0,0,0,.09,0,.08.07.07Z"/><path class="cls-1" d="M199.63,25.68c-.11,0-.18-.07-.22-.27s0-.32.12-.34l1.28-.21c.11,0,.18.07.22.27s0,.32-.12.34Zm1.25-.43s0,0,0-.1h0c0-.06,0-.09-.07-.08l-1.27.22s0,0,0,.1,0,.09.07.08Z"/><path class="cls-1" d="M201.42,25.44c-.13,0-.22-.1-.25-.34s0-.38.15-.4l1.54-.22c.13,0,.22.09.25.34s0,.38-.15.4Zm1.51-.48s.06-.05,0-.12h0c0-.07,0-.11-.08-.1l-1.55.22s-.06,0,0,.12,0,.11.08.1Z"/><path class="cls-1" d="M186.4,30.37l.11.2,0,0,0-.07-.41.23,0,.06,0,0L186,30.7l.44-.25,0-.06Z"/><path class="cls-1" d="M187.16,29.82l.15.28-.05,0,0-.09-.56.32,0,.08,0,0-.1-.18.6-.34,0-.09Z"/><path class="cls-1" d="M188,29.37l.15.27,0,0-.05-.09-.56.31.05.09-.05,0-.1-.19.61-.33-.06-.1Z"/><path class="cls-1" d="M188.85,28.9l.16.32-.06,0,0-.1-.65.31.05.11-.05,0-.1-.21.69-.34,0-.1Z"/><path class="cls-1" d="M189.75,28.48l.14.32,0,0-.05-.1-.65.3.05.1-.05,0-.1-.21.7-.32-.05-.11Z"/><path class="cls-1" d="M190.8,27.94l.18.39-.06,0-.06-.13-.8.38.06.13-.06,0-.12-.26.85-.41-.06-.13Z"/><path class="cls-1" d="M193.14,27l.16.47-.08,0-.05-.15-1,.34.06.16-.08,0-.11-.32,1-.37-.05-.16Z"/><path class="cls-1" d="M199.16,25.08l.15.66-.12,0,0-.21-1.35.3,0,.21-.11,0-.1-.44,1.46-.33-.05-.22Z"/><path class="cls-1" d="M204.94,24.17l.07.77h-.13l0-.25-1.56.16,0,.25h-.12l-.06-.51,1.69-.17,0-.26Z"/><path class="cls-1" d="M206.79,24.24l0,.71h-.12v-.23l-1.45,0v.23h-.12l0-.47,1.57.06v-.24Z"/><path class="cls-1" d="M188.56,31s-.06,0-.09-.05,0-.08,0-.09l.27-.21s.06,0,.09,0,0,.08,0,.1Zm.23-.26a0,0,0,0,0,0,0h0s0,0,0,0l-.27.2a0,0,0,0,0,0,0s0,0,0,0Z"/><path class="cls-1" d="M203.08,25.13l.08.64-.1,0,0-.21-1.3.18,0,.2-.11,0-.06-.43,1.41-.19,0-.21Z"/><path class="cls-1" d="M203.54,25.5c-.1,0-.17-.08-.19-.27s0-.28.13-.29l1.18-.13q.15,0,.18.27c0,.18,0,.28-.12.29Zm1.15-.32s.05,0,.05-.09h0c0-.06,0-.09,0-.08l-1.18.12s-.05,0,0,.09,0,.09.06.08Z"/><path class="cls-1" d="M205.45,25.18c-.09,0-.13-.08-.13-.21s.05-.2.14-.2l1,0c.09,0,.13.07.13.21s-.05.2-.14.2Zm1-.12s0,0,0-.06h0s0-.06,0-.06l-1,0s0,0,0,.06,0,.06,0,.06Z"/><path class="cls-1" d="M192.23,29s-.1,0-.15-.11,0-.16,0-.19l.58-.26c.05,0,.1,0,.14.11s.05.16,0,.18Zm.53-.37s0,0,0-.06h0s0,0,0,0l-.58.27s0,0,0,.05,0,0,0,0Z"/><path class="cls-1" d="M194.17,28.19q-.09,0-.15-.12c-.05-.11,0-.17,0-.2l.65-.26q.09,0,.15.12c0,.1,0,.17,0,.19Zm.61-.38s0,0,0-.06h0s0,0,0,0l-.66.26s0,0,0,.06,0,.05.05,0Z"/><path class="cls-1" d="M195.11,27.83c-.06,0-.12,0-.16-.15s0-.19,0-.21l.77-.26c.07,0,.12,0,.16.15s0,.19,0,.22Zm.73-.38s0,0,0-.07h0s0-.05,0,0l-.77.26s0,0,0,.06,0,.05,0,.05Z"/><path class="cls-1" d="M196.21,27.49c-.07,0-.13,0-.17-.16s0-.21,0-.23l.82-.28c.07,0,.12,0,.17.16s0,.21,0,.23Zm.77-.41s0,0,0-.07h0s0-.06-.06-.05l-.81.27s0,0,0,.07,0,.06,0,.05Z"/><path class="cls-1" d="M198.7,26.67c-.09,0-.15,0-.19-.19s0-.24.06-.26l.94-.28c.08,0,.14,0,.19.19s0,.24-.06.26Zm.89-.43s0,0,0-.08h0c0-.05,0-.07-.05-.06l-.95.28s0,0,0,.08,0,.06.06.05Z"/><path class="cls-1" d="M200,26.38c-.11,0-.18-.07-.22-.27s0-.32.1-.34l1.27-.26c.11,0,.19.07.23.27s0,.32-.11.34Zm1.23-.47s.05,0,0-.1h0c0-.06,0-.08-.08-.08L200,26s0,0,0,.1,0,.09.07.09Z"/><path class="cls-1" d="M188.36,30.92l.1.14,0,0,0,0-.29.23,0,0,0,0-.07-.09.31-.24,0,0Z"/><path class="cls-1" d="M189.26,30.23l.13.2,0,0,0-.07-.41.26,0,.07,0,0-.08-.13.44-.28,0-.07Z"/><path class="cls-1" d="M189.86,29.91l.1.21,0,0,0-.07-.43.22,0,.07,0,0-.07-.14.47-.24,0-.07Z"/><path class="cls-1" d="M190.48,29.55l.12.24,0,0,0-.08L190,30l0,.07,0,0-.09-.15.52-.28,0-.08Z"/><path class="cls-1" d="M191.11,29.22l.12.23,0,0,0-.07-.47.25,0,.08,0,0-.09-.16.52-.27,0-.08Z"/><path class="cls-1" d="M191.88,28.79l.14.3-.05,0,0-.1-.6.3,0,.09-.05,0-.09-.19.65-.32,0-.09Z"/><path class="cls-1" d="M193.82,27.89l.17.41-.07,0-.06-.12-.82.34.06.13-.07,0-.12-.26.89-.38-.05-.14Z"/><path class="cls-1" d="M198.28,26.29l.15.5-.09,0,0-.16-1,.29,0,.16-.08,0-.09-.33,1.09-.31-.05-.16Z"/><path class="cls-1" d="M234.56,45.5q-.06.11-.24,0c-.12-.08-.16-.14-.12-.21l.45-.76c0-.06.12-.06.24,0s.16.14.12.21Zm.32-.83s0,0,0-.06h0s-.06,0-.08,0l-.45.75s0,0,0,.07.06,0,.07,0Z"/><path class="cls-1" d="M236.09,43.14c-.05.08-.15.06-.28,0s-.18-.18-.13-.26l.63-.86c.05-.07.15-.06.28,0s.18.18.13.26Zm.48-1s0-.05,0-.08h0s-.07,0-.09,0l-.62.87s0,0,0,.08.07,0,.09,0Z"/><path class="cls-1" d="M237,41.9c-.07.09-.18.06-.33-.06s-.19-.22-.12-.31l.77-.94q.1-.12.33.06c.15.13.19.23.12.31Zm.62-1.07s0-.06,0-.09h0c-.05,0-.08-.05-.1,0l-.78.94s0,.06,0,.1.08,0,.1,0Z"/><path class="cls-1" d="M238.11,40.59c-.07.09-.18.07-.34-.06s-.2-.24-.13-.33l.82-1c.07-.09.19-.07.35.07s.2.24.13.32Zm.66-1.13s0-.07,0-.11h0s-.08,0-.1,0l-.83,1s0,.06,0,.1.08.05.11,0Z"/><path class="cls-1" d="M240.65,37.84c-.09.1-.23.06-.41-.11s-.21-.31-.11-.41l1.14-1.14c.1-.1.24-.06.41.12s.21.31.11.4Zm1-1.32s0-.07,0-.12h0c-.05-.06-.09-.07-.13,0l-1.14,1.14s0,.08,0,.13.1.06.13,0Z"/><path class="cls-1" d="M242.16,36.37c-.11.1-.25.05-.43-.14s-.22-.33-.11-.43l1.19-1.14c.1-.09.25,0,.43.14s.22.34.11.43Zm1-1.33s0-.08,0-.14h0c0-.06-.1-.07-.13,0L241.8,36s0,.07,0,.13.09.07.13,0Z"/><path class="cls-1" d="M243.82,34.92c-.12.1-.27,0-.45-.17s-.21-.37-.1-.47l1.35-1.15q.18-.15.45.18c.18.21.21.37.1.47ZM245,33.55s0-.08,0-.14h0c0-.07-.1-.08-.14,0l-1.35,1.14s0,.08,0,.15.1.08.14.05Z"/><path class="cls-1" d="M247.39,32.2q-.21.15-.48-.24c-.18-.26-.2-.44,0-.54l1.63-1.11q.21-.15.48.24c.17.26.19.44.05.54Zm1.45-1.39s0-.08,0-.16h0c0-.08-.1-.1-.14-.07L247,31.69s0,.09,0,.17.11.1.15.07Z"/><path class="cls-1" d="M231.85,50.67l.23.12,0,0-.07,0-.23.48.07,0v0l-.16-.08.25-.52-.08,0Z"/><path class="cls-1" d="M232.15,49.67l.32.15,0,.06-.11-.05-.31.66.1,0,0,.05-.22-.1.34-.72-.11-.05Z"/><path class="cls-1" d="M232.5,48.77l.32.15,0,.06-.11,0-.31.66.1,0,0,0-.22-.1.34-.71-.11-.05Z"/><path class="cls-1" d="M232.9,47.74l.36.17,0,.06-.12,0-.35.73.12.06,0,.06-.24-.12.38-.79-.12-.06Z"/><path class="cls-1" d="M233.46,46.72l.34.2,0,.06-.11-.06-.41.7.11.07,0,.05-.23-.13.44-.76-.12-.07Z"/><path class="cls-1" d="M234,45.47l.43.25-.05.07-.13-.08-.51.87.14.08,0,.07-.28-.17.54-.93-.14-.09Z"/><path class="cls-1" d="M235.43,43.08l.47.33-.06.07-.15-.1-.67,1,.15.1-.06.08-.31-.21.73-1-.16-.11Z"/><path class="cls-1" d="M239.88,37.54l.55.56-.1.09-.17-.18L239,39.12l.18.17-.1.09-.36-.36,1.22-1.2-.18-.18Z"/><path class="cls-1" d="M246.57,31.62l.53.73-.13.09-.17-.24-1.49,1.08.17.24-.12.09-.35-.49L246.62,32l-.17-.24Z"/><path class="cls-1" d="M233.48,43.19c0,.05-.1,0-.19,0s-.11-.12-.08-.17l.4-.51s.09,0,.18,0,.12.12.08.17Zm.3-.58s0,0,0,0h0s0,0-.06,0l-.4.51s0,0,0,0,0,0,0,0Z"/><path class="cls-1" d="M234.8,41.5s-.11,0-.21,0-.12-.14-.08-.2l.51-.6s.11,0,.21,0,.12.15.08.2Zm.41-.69s0,0,0-.06h0s-.05,0-.07,0l-.51.6s0,0,0,.06.05,0,.06,0Z"/><path class="cls-1" d="M235.54,40.64c0,.06-.13,0-.23-.06s-.13-.18-.08-.24l.63-.65c0-.06.13,0,.23.06s.13.18.08.24Zm.52-.76s0,0,0-.07h0s-.06,0-.07,0l-.63.66s0,0,0,.07a.07.07,0,0,0,.08,0Z"/><path class="cls-1" d="M236.43,39.69c-.06.06-.14,0-.25-.06s-.14-.19-.08-.25l.66-.7c.06-.06.14,0,.25.07s.14.19.08.25Zm.55-.8s0,0,0-.08h0s-.06,0-.08,0l-.66.7s0,0,0,.07.06,0,.08,0Z"/><path class="cls-1" d="M238.47,37.68c-.07.06-.17,0-.28-.11s-.13-.22-.06-.29l.83-.71c.07-.07.16,0,.28.1s.13.23.06.29Zm.71-.86s0,0,0-.08h0s-.06,0-.08,0l-.83.71s0,0,0,.09.07.05.09,0Z"/><path class="cls-1" d="M239.66,36.72c-.09.07-.2,0-.34-.14s-.15-.28-.06-.35l1-.83c.09-.07.2,0,.33.13s.15.28.07.35Zm.88-1s0-.05,0-.1h0s-.07-.07-.1,0l-1,.83s0,.06,0,.11.08.06.11,0Z"/><path class="cls-1" d="M231,46.86l.17.1,0,0L231,47l-.19.35.05,0v0l-.11-.06.21-.37-.06,0Z"/><path class="cls-1" d="M231.26,46.13l.23.13,0,0-.08,0-.27.47.08,0,0,0-.15-.08.29-.51-.07,0Z"/><path class="cls-1" d="M231.65,45.44l.24.13,0,0-.07,0-.27.47.07,0,0,0-.15-.08.29-.51-.08-.05Z"/><path class="cls-1" d="M232.08,44.72l.25.16,0,0-.08-.06-.32.51.08,0,0,0-.16-.1.35-.55-.08,0Z"/><path class="cls-1" d="M232.54,44l.25.16,0,0-.08,0-.34.5.08,0,0,0-.16-.11.37-.54-.08,0Z"/><path class="cls-1" d="M233.07,43.18l.3.2,0,0-.1-.07-.41.62.1.07,0,.05-.21-.13.44-.67-.1-.07Z"/><path class="cls-1" d="M234.33,41.44l.32.27,0,0-.11-.08-.55.67.11.09-.05.05-.21-.18.59-.73-.11-.09Z"/><path class="cls-1" d="M237.86,37.45l.4.42-.07.06-.13-.13-.84.81.12.13-.06.07-.27-.28.92-.87-.14-.14Z"/><path class="cls-1" d="M241.65,34.26l.39.52-.09.07-.13-.17-1.06.8.13.17-.09.06-.26-.34,1.15-.87-.13-.17Z"/><path class="cls-1" d="M243,33.51l.29.52-.09,0-.09-.17-1.08.6.1.17-.09,0-.2-.35,1.17-.65-.1-.17Z"/><path class="cls-1" d="M224.72,4.66c-.1-.06-.1-.19,0-.38s.22-.25.33-.19l1.2.72c.1.06.1.19,0,.38s-.22.26-.32.2Zm1.33.52s.06,0,.1,0h0q0-.09,0-.12L225,4.29s-.07,0-.11.06,0,.09,0,.11Z"/><path class="cls-1" d="M228.49,7.13c-.12-.09-.1-.24.06-.46s.3-.28.42-.2l1.38,1c.12.09.1.24-.06.46s-.3.29-.42.2ZM230,7.9s.09,0,.13-.06h0c.05-.06.06-.11,0-.14l-1.38-1s-.08,0-.13.06,0,.11,0,.14Z"/><path class="cls-1" d="M230.47,8.63c-.13-.11-.1-.28.1-.53s.36-.3.49-.19l1.5,1.24c.13.11.1.28-.1.52s-.36.31-.49.2Zm1.71,1s.09,0,.15,0h0c.06-.07.07-.12,0-.16l-1.51-1.24s-.09,0-.15.05-.07.13,0,.17Z"/><path class="cls-1" d="M232.55,10.37c-.13-.11-.1-.3.11-.55s.39-.32.52-.21l1.6,1.32c.14.12.11.3-.1.55s-.39.33-.53.21Zm1.82,1.06s.1,0,.16-.06h0c.07-.08.08-.13,0-.17L233,9.88s-.09,0-.16,0-.07.14,0,.18Z"/><path class="cls-1" d="M236.94,14.45c-.16-.16-.09-.38.18-.66s.5-.33.66-.17l1.81,1.82c.16.16.1.38-.18.65s-.5.34-.65.18ZM239.05,16c0,.05.11,0,.2,0h0c.08-.08.1-.15.05-.2l-1.81-1.82c-.05-.06-.12,0-.21,0s-.1.15-.05.21Z"/><path class="cls-1" d="M239.29,16.86c-.16-.17-.08-.4.22-.69s.54-.34.69-.18L242,17.91c.16.17.09.39-.22.68s-.53.35-.69.18Zm2.13,1.61c.05.05.12,0,.21,0h0q.13-.14.06-.21l-1.8-1.91c0-.06-.13,0-.22,0s-.11.16-.06.22Z"/><path class="cls-1" d="M241.6,19.52c-.16-.19-.07-.43.28-.72s.59-.34.75-.15l1.82,2.16c.16.19.07.43-.28.72s-.59.34-.75.15Zm2.18,1.86c.05.06.13.05.23,0h0c.11-.09.13-.16.08-.22L242.27,19c-.05-.06-.13,0-.23,0s-.13.17-.08.23Z"/><path class="cls-1" d="M245.93,25.24c-.16-.23,0-.48.39-.77s.7-.3.86-.08L249,27c.15.23,0,.48-.39.76s-.7.31-.86.09Zm2.21,2.32c.05.07.13.07.26,0h0c.13-.08.16-.16.12-.23l-1.78-2.62c-.05-.07-.14-.07-.26,0s-.17.16-.12.23Z"/><path class="cls-1" d="M216.47.3l-.18.38-.07,0,.06-.12-.76-.37-.06.12-.07,0,.12-.25.83.4.07-.13Z"/><path class="cls-1" d="M218.08.79l-.25.52-.09,0,.08-.17-1-.51-.08.17-.09,0,.16-.35,1.14.55L218,.75Z"/><path class="cls-1" d="M219.51,1.36l-.25.51-.09,0,.08-.17-1.05-.5-.08.16-.09,0,.17-.34,1.14.55.08-.18Z"/><path class="cls-1" d="M221.16,2l-.28.57-.1,0,.09-.19-1.17-.56-.09.18-.1-.05.19-.38,1.27.61.09-.19Z"/><path class="cls-1" d="M222.78,2.9l-.32.55-.1-.06.11-.17-1.13-.66-.1.18-.09-.06.21-.36,1.22.71.1-.19Z"/><path class="cls-1" d="M224.77,3.82l-.39.68-.12-.07.13-.22L223,3.4l-.13.22-.11-.07L223,3.1l1.5.88.13-.23Z"/><path class="cls-1" d="M228.6,6.06l-.53.75-.13-.09.17-.24L226.58,5.4l-.17.24-.13-.09.36-.49,1.65,1.17.18-.26Z"/><path class="cls-1" d="M237.42,13.22l-.88.86-.15-.15.29-.28-1.77-1.81-.28.28-.15-.15.59-.57,1.91,2,.3-.29Z"/><path class="cls-1" d="M246.86,23.93l-1.17.84-.14-.19.38-.27-1.72-2.4-.38.27-.14-.19.78-.56L246.33,24l.39-.28Z"/><path class="cls-1" d="M243.69,22.77c-.11-.15,0-.31.19-.47s.41-.18.51,0L245.63,24c.11.15,0,.31-.19.48s-.41.17-.51,0Zm1.48,1.57c0,.05.09.05.16,0h0c.07-.05.09-.1,0-.15l-1.23-1.74c0-.05-.09-.05-.16,0s-.09.1-.05.15Z"/><path class="cls-1" d="M225.7,8.15c-.07,0-.07-.13,0-.27s.15-.19.22-.15l.82.44q.1.06,0,.27c-.08.14-.16.19-.23.16Zm.9.3s.05,0,.07,0h0s0-.07,0-.08l-.82-.45s0,0-.07,0,0,.07,0,.08Z"/><path class="cls-1" d="M228.41,9.66c-.09-.05-.08-.15,0-.31s.19-.21.27-.15l1,.59c.08.05.08.15,0,.3s-.19.21-.27.16Zm1.07.43s.05,0,.08-.05h0s0-.08,0-.09l-1-.59s-.05,0-.08,0,0,.08,0,.1Z"/><path class="cls-1" d="M229.79,10.53c-.09-.07-.08-.18,0-.35s.22-.23.32-.16l1.07.74c.09.07.08.18,0,.35s-.23.23-.32.16Zm1.19.57s.07,0,.1,0h0c0-.05,0-.09,0-.11L230,10.2s-.06,0-.1,0,0,.09,0,.11Z"/><path class="cls-1" d="M231.33,11.58c-.09-.07-.08-.19,0-.37s.24-.24.34-.17l1.14.79c.09.07.08.19,0,.37s-.24.24-.34.17Zm1.27.6s.07,0,.1,0h0c0-.06,0-.1,0-.12l-1.13-.79s-.07,0-.11,0,0,.09,0,.11Z"/><path class="cls-1" d="M234.65,14q-.17-.13.09-.42c.16-.19.29-.24.4-.15l1.2,1q.15.13-.09.42c-.16.19-.3.24-.4.15Zm1.37.82s.07,0,.12,0h0c.05-.06.06-.1,0-.13l-1.2-1s-.08,0-.13,0-.05.1,0,.13Z"/><path class="cls-1" d="M236.28,15.52c-.13-.11-.09-.28.11-.51s.37-.28.49-.17l1.41,1.27c.12.11.09.28-.12.5s-.36.28-.48.17Zm1.62,1s.09,0,.15-.05h0q.09-.11,0-.15l-1.41-1.27s-.09,0-.15.05-.07.12,0,.15Z"/><path class="cls-1" d="M238.21,17.27c-.12-.11-.08-.28.13-.5s.37-.27.49-.16l1.38,1.3c.12.11.08.28-.13.5s-.37.27-.49.16Zm1.6,1.07s.09,0,.15,0h0c.06-.06.07-.11,0-.15l-1.39-1.3s-.09,0-.15.05-.07.11,0,.15Z"/><path class="cls-1" d="M240.12,18.92c-.09-.1,0-.24.15-.4s.33-.19.42-.09l1,1.16c.08.1,0,.23-.16.39s-.33.19-.41.09Zm1.18,1s.07,0,.13,0h0c0-.05.07-.09,0-.12l-1-1.16s-.07,0-.13,0-.07.09-.05.13Z"/><path class="cls-1" d="M219.93,5.35l-.1.26h0l0-.09-.53-.2,0,.08h0l.07-.17.57.22,0-.09Z"/><path class="cls-1" d="M221,5.64,220.9,6l-.06,0,0-.12-.73-.27,0,.11-.06,0,.09-.24.79.3,0-.12Z"/><path class="cls-1" d="M222.1,6.05l-.14.36-.06,0,0-.11L221.22,6l0,.11-.06,0,.09-.24.78.31L222,6Z"/><path class="cls-1" d="M223.22,6.5l-.17.39-.07,0,.06-.13-.8-.35-.05.13-.07,0,.12-.26.85.38.06-.13Z"/><path class="cls-1" d="M224.31,7l-.18.39-.07,0,.06-.13-.78-.37-.06.12-.06,0,.12-.25.85.4.06-.13Z"/><path class="cls-1" d="M225.64,7.56l-.22.47-.08,0,.07-.16-1-.44-.07.16-.08,0,.14-.32,1,.48.07-.16Z"/><path class="cls-1" d="M228.39,9l-.31.53L228,9.44l.1-.17L227,8.64l-.1.17-.09-.05.21-.35,1.16.68.11-.17Z"/><path class="cls-1" d="M234.84,13.13l-.5.65-.11-.08.16-.21-1.34-1-.16.21-.11-.08.33-.44,1.45,1.11.17-.22Z"/><path class="cls-1" d="M243.8,21.9l-.82.62-.12-.15.26-.2L241.7,20.3l-.26.2-.12-.15.54-.42,1.54,2,.28-.21Z"/><path class="cls-1" d="M226.44,14c-.08,0-.08-.13,0-.28s.14-.21.22-.18l.89.4c.08,0,.08.12,0,.27s-.14.21-.22.18Zm1,.23s0,0,.07,0h0c0-.05,0-.08,0-.09l-.89-.39s0,0-.07,0,0,.08,0,.09Z"/><path class="cls-1" d="M229.37,15.27c-.09,0-.09-.15,0-.32s.17-.22.26-.18l1.06.53c.09,0,.09.15,0,.31s-.17.23-.26.19Zm1.15.35s0,0,.08,0h0c0-.05,0-.08,0-.1L229.54,15s-.06,0-.09.05,0,.08,0,.1Z"/><path class="cls-1" d="M230.88,16.05c-.1-.06-.1-.18,0-.37s.21-.25.31-.19l1.17.68c.11.06.1.18,0,.37s-.22.25-.32.19Zm1.28.48s.07,0,.1-.05h0q0-.09,0-.12l-1.17-.67s-.07,0-.1.05,0,.1,0,.12Z"/><path class="cls-1" d="M232.57,17c-.11-.07-.11-.2,0-.39s.22-.27.33-.21l1.25.72c.1.06.1.19,0,.39s-.23.27-.34.2Zm1.36.51s.07,0,.11-.06h0q0-.09,0-.12l-1.25-.72s-.07,0-.1.06,0,.1,0,.12Z"/><path class="cls-1" d="M236.21,19.26c-.11-.09-.09-.23.06-.45s.28-.27.4-.19l1.33.95c.12.09.1.23-.05.45s-.29.27-.4.19Zm1.5.73s.08,0,.12-.06h0c0-.06,0-.11,0-.13l-1.33-1s-.08,0-.12.06,0,.11,0,.13Z"/><path class="cls-1" d="M237.93,20.57c-.14-.11-.11-.28.07-.53s.35-.33.49-.22L240.06,21c.14.11.11.28-.07.53s-.36.33-.49.22Zm1.77.92s.09,0,.15-.06h0c.05-.08.06-.13,0-.17l-1.58-1.18s-.09,0-.15.06-.06.13,0,.16Z"/><path class="cls-1" d="M220.22,11.57l-.08.28,0,0,0-.09-.57-.16,0,.09h-.05l.05-.19.62.18,0-.09Z"/><path class="cls-1" d="M221.39,11.76l-.11.38h-.07l0-.13-.78-.22,0,.12-.06,0,.07-.25.85.24,0-.13Z"/><path class="cls-1" d="M222.53,12.1l-.11.38-.07,0,0-.12-.78-.23,0,.13-.07,0,.07-.26.85.25,0-.13Z"/><path class="cls-1" d="M223.73,12.46l-.15.42-.07,0,.05-.14-.86-.29,0,.13-.07,0,.09-.28.93.32,0-.14Z"/><path class="cls-1" d="M224.9,12.89l-.15.41-.08,0,.06-.14-.85-.32,0,.14-.07,0,.11-.27.91.34.05-.14Z"/><path class="cls-1" d="M226.32,13.35l-.18.51-.09,0,.06-.17-1.05-.37-.05.17-.09,0,.12-.33,1.13.4.06-.18Z"/><path class="cls-1" d="M229.29,14.56l-.27.58-.1-.05.09-.19-1.17-.56-.09.19-.1,0,.18-.38,1.27.61.09-.19Z"/><path class="cls-1" d="M236.33,18.29l-.46.73-.12-.08.15-.23-1.48-.95-.15.24-.12-.08.31-.48,1.59,1,.16-.24Z"/><path class="cls-1" d="M225.43,15.48c-.08,0-.09-.12,0-.28s.12-.22.2-.19l.91.35c.08,0,.09.12,0,.28s-.13.21-.21.18Zm1,.18s0,0,.06-.05h0s0-.08,0-.09l-.91-.34s0,0-.06.05,0,.08,0,.09Z"/><path class="cls-1" d="M228.42,16.65c-.09,0-.1-.15,0-.32s.16-.24.26-.19l1.08.46c.09,0,.1.15,0,.32s-.16.24-.25.2Zm1.16.29s.06,0,.08-.06h0c0-.05,0-.08,0-.1l-1.08-.46s-.06,0-.08.05,0,.09,0,.1Z"/><path class="cls-1" d="M230.05,17.29c-.1-.05-.11-.18,0-.37s.2-.26.3-.2l1.21.61c.1.05.11.18,0,.37s-.2.26-.3.2Zm1.31.41s.06,0,.09-.06h0c0-.06,0-.09,0-.11l-1.21-.61s-.06,0-.09.06,0,.09,0,.11Z"/><path class="cls-1" d="M233.67,19.14c-.12-.06-.12-.2,0-.43s.23-.29.35-.23l1.38.7c.12.06.12.2,0,.42s-.23.3-.35.24Zm1.5.47s.08,0,.11-.07h0c0-.07,0-.11,0-.13l-1.38-.7s-.07,0-.11.07,0,.11,0,.13Z"/><path class="cls-1" d="M219.09,13.42l-.06.29-.05,0,0-.09-.57-.13,0,.09h0l0-.19.62.15,0-.1Z"/><path class="cls-1" d="M220.27,13.56l-.09.38h-.07l0-.13-.79-.18,0,.12h-.06l.06-.26.85.2,0-.13Z"/><path class="cls-1" d="M221.42,13.83l-.08.39-.07,0,0-.12-.79-.19,0,.13-.06,0,.06-.25.85.2,0-.13Z"/><path class="cls-1" d="M222.64,14.14l-.12.42-.08,0,0-.14-.86-.25,0,.14-.07,0,.08-.28.94.27,0-.14Z"/><path class="cls-1" d="M223.83,14.5l-.13.42-.07,0,0-.14-.86-.27,0,.13-.07,0,.09-.28.93.3,0-.14Z"/><path class="cls-1" d="M225.27,14.88l-.15.52-.09,0,.05-.17L224,14.89l-.05.17-.09,0,.1-.34,1.15.34.06-.17Z"/><path class="cls-1" d="M228.3,15.94l-.24.59-.1,0,.08-.19-1.2-.5-.08.19-.1,0,.17-.39,1.29.54.08-.2Z"/><path class="cls-1" d="M233.64,18.22l-.39.7-.12-.07.13-.22-1.41-.81-.13.23-.11-.07.26-.46,1.52.87.14-.23Z"/><path class="cls-1" d="M237.76,20.34l-.48.81-.14-.08.16-.26-1.66-1-.16.26-.13-.08.32-.54,1.79,1.07.17-.27Z"/><path class="cls-1" d="M239.71,21.82l-.52.7-.12-.09.17-.22-1.44-1.06-.17.22-.12-.08.35-.47L239.42,22l.17-.24Z"/><path class="cls-1" d="M227.69,18.16c-.07,0-.08-.11,0-.25s.11-.2.18-.17l.83.3c.07,0,.08.12,0,.26s-.11.2-.19.17Zm.89.16s0,0,.06-.05h0s0-.07,0-.08l-.83-.3s-.05,0-.06.05,0,.07,0,.07Z"/><path class="cls-1" d="M230.43,19.21c-.08,0-.09-.14,0-.29s.15-.22.23-.19l1,.42c.09,0,.1.14,0,.29s-.14.22-.23.18Zm1.06.25s0,0,.07-.05h0c0-.05,0-.08,0-.09l-1-.42s-.05,0-.07.05,0,.08,0,.09Z"/><path class="cls-1" d="M231.85,19.83c-.1,0-.1-.16,0-.34s.18-.23.28-.19l1.1.55c.1,0,.1.16,0,.34s-.18.24-.27.19Zm1.19.37s.06,0,.08-.06h0c0-.05,0-.09,0-.1l-1.1-.55s-.06,0-.09.05,0,.09,0,.11Z"/><path class="cls-1" d="M233.43,20.6c-.1-.05-.1-.17,0-.35s.19-.25.29-.2l1.17.58c.1.05.11.17,0,.35s-.19.26-.3.21Zm1.27.39s.06,0,.09-.06h0c0-.05,0-.09,0-.11l-1.18-.58s-.06,0-.09.06,0,.09,0,.11Z"/><path class="cls-1" d="M236.91,22.45c-.13-.09-.12-.25,0-.49s.29-.31.42-.23l1.51.94q.19.12,0,.48t-.42.24Zm1.66.69s.09,0,.13-.07h0c.05-.07.05-.12,0-.15l-1.5-.94s-.09,0-.13.07-.05.12,0,.15Z"/><path class="cls-1" d="M221.91,16.34l0,.26h-.05l0-.08-.52-.12,0,.08h0l0-.17.57.13,0-.09Z"/><path class="cls-1" d="M223,16.46l-.08.35-.06,0,0-.11-.72-.16,0,.11h-.06l.06-.23.78.17,0-.12Z"/><path class="cls-1" d="M224,16.7l-.08.35-.06,0,0-.11-.72-.16,0,.11h-.06l0-.23.78.17,0-.12Z"/><path class="cls-1" d="M225.15,17l-.11.39-.07,0,0-.12-.79-.22,0,.12-.06,0,.07-.25.85.24,0-.13Z"/><path class="cls-1" d="M226.24,17.28l-.12.39-.07,0,0-.13-.78-.24,0,.13-.07,0,.08-.26.85.26,0-.13Z"/><path class="cls-1" d="M227.55,17.62l-.14.48-.08,0,0-.15-1-.28,0,.15-.08,0,.09-.31,1.06.3,0-.16Z"/><path class="cls-1" d="M230.32,18.56l-.22.54-.09,0,.07-.17L229,18.45l-.07.17-.1,0,.15-.35,1.18.48.08-.18Z"/><path class="cls-1" d="M236.92,21.57l-.38.68-.11-.07.12-.22-1.39-.77-.12.22-.12-.06.25-.46,1.51.84.13-.23Z"/><path class="cls-1" d="M227.13,10.94c-.07,0-.07-.13,0-.28s.16-.2.23-.16l.85.47c.08,0,.08.13,0,.28s-.16.19-.23.15Zm.94.31s.05,0,.07,0h0c0-.05,0-.08,0-.09l-.85-.46s0,0-.07,0,0,.07,0,.09Z"/><path class="cls-1" d="M229.94,12.51c-.09-.06-.08-.16,0-.32s.19-.22.28-.16l1,.61c.08,0,.08.16,0,.32s-.19.21-.28.16Zm1.11.44s0,0,.08,0h0q0-.08,0-.09l-1-.62s-.06,0-.09.05,0,.08,0,.1Z"/><path class="cls-1" d="M231.37,13.41c-.09-.07-.08-.19,0-.37s.23-.23.33-.16l1.11.77c.09.07.08.19,0,.36s-.23.24-.33.17Zm1.24.58s.06,0,.1,0h0c0-.06,0-.09,0-.12l-1.11-.77s-.06,0-.1,0,0,.09,0,.11Z"/><path class="cls-1" d="M233,14.5c-.1-.07-.09-.2,0-.39s.25-.24.35-.17l1.18.82c.1.07.09.2,0,.38s-.25.25-.35.18Zm1.31.62s.07,0,.11,0h0c0-.05,0-.09,0-.12l-1.18-.82s-.06,0-.1,0-.05.1,0,.12Z"/><path class="cls-1" d="M236.4,17.05c-.1-.1-.07-.24.1-.44s.3-.25.41-.16l1.25,1.06c.1.1.07.24-.09.44s-.31.25-.42.16Zm1.43.85s.07,0,.12,0h0c0-.06,0-.1,0-.13l-1.25-1.06s-.07,0-.12,0-.06.11,0,.14Z"/><path class="cls-1" d="M238.09,18.58c-.13-.12-.08-.29.12-.52s.38-.29.51-.18l1.46,1.31c.13.12.09.29-.12.52s-.38.29-.51.18Zm1.68,1.07s.1,0,.16,0h0c.06-.07.07-.13,0-.16l-1.46-1.32s-.09,0-.16.05-.07.13,0,.16Z"/><path class="cls-1" d="M221.15,8.05l-.1.27,0,0,0-.09L220.49,8l0,.09-.05,0,.07-.18.59.23,0-.09Z"/><path class="cls-1" d="M222.3,8.34l-.15.37-.06,0,0-.12-.76-.28,0,.11-.07,0,.1-.24.82.31,0-.13Z"/><path class="cls-1" d="M223.4,8.77l-.14.37-.06,0,0-.12-.75-.29-.05.12-.06,0,.1-.25.81.32.05-.13Z"/><path class="cls-1" d="M224.56,9.23l-.18.41-.07,0,.06-.13-.82-.37-.06.13-.07,0,.12-.27.89.4.06-.14Z"/><path class="cls-1" d="M225.69,9.76l-.19.39-.06,0,.06-.13-.81-.39-.06.13-.07,0,.12-.26.88.42.07-.14Z"/><path class="cls-1" d="M227.07,10.33l-.23.49-.08,0,.07-.16-1-.46-.07.16-.08,0,.15-.33,1.09.5.07-.17Z"/><path class="cls-1" d="M229.92,11.79l-.32.55-.1-.06.11-.17-1.12-.66-.1.18-.1-.06.22-.36,1.21.71.1-.18Z"/><path class="cls-1" d="M236.6,16.1l-.52.68-.11-.09.16-.22-1.38-1.06-.17.22-.11-.09.34-.45,1.5,1.15.18-.23Z"/><path class="cls-1" d="M242.16,21l-.67.69-.12-.11.22-.22-1.42-1.39-.22.23-.11-.12.45-.46,1.53,1.5.23-.23Z"/><path class="cls-1" d="M243.59,22.8l-.71.55-.09-.12.23-.18-1.12-1.44-.23.17-.1-.12.47-.36,1.22,1.56.24-.18Z"/><path class="cls-1" d="M239.73,19.93l-.55.6-.1-.09.18-.19L238,19.13l-.17.2-.11-.1.37-.39,1.32,1.2.19-.2Z"/><path class="cls-1" d="M239.75,20.67c-.1-.09-.06-.22.1-.39s.3-.21.39-.12l1.08,1c.09.09.05.22-.11.39s-.29.21-.39.12Zm1.24.86s.07,0,.12,0h0c0-.06,0-.1,0-.12l-1.07-1s-.07,0-.12,0-.06.09,0,.12Z"/><path class="cls-1" d="M241.6,22.25c-.06-.08,0-.18.1-.29s.24-.11.31,0l.79,1c.07.09,0,.18-.1.29s-.24.12-.3,0Zm.94.89s.05,0,.09,0h0s.05-.06,0-.09l-.79-1s-.06,0-.1,0-.05.07,0,.09Z"/><path class="cls-1" d="M227.2,12.57c-.06,0-.06-.1,0-.23s.12-.17.19-.14l.72.35c.07,0,.07.1,0,.23s-.12.17-.18.14Zm.79.22s0,0,.06,0h0s0-.06,0-.07l-.72-.34s0,0-.06,0,0,.06,0,.07Z"/><path class="cls-1" d="M229.56,13.79c-.07,0-.07-.12,0-.24s.14-.17.2-.14l.79.42c.07,0,.07.12,0,.24s-.14.17-.21.14Zm.85.29s.05,0,.07,0h0s0-.07,0-.08l-.79-.42s0,0-.06,0,0,.07,0,.08Z"/><path class="cls-1" d="M230.66,14.42c-.07-.05-.07-.14,0-.28s.16-.18.24-.14l.87.54c.08,0,.07.14,0,.27s-.17.19-.24.14Zm1,.39s0,0,.07,0h0s0-.07,0-.09l-.87-.53s-.05,0-.08,0,0,.07,0,.08Z"/><path class="cls-1" d="M231.89,15.2c-.08,0-.08-.15,0-.3s.18-.19.26-.14l.93.56c.08,0,.07.15,0,.3s-.17.2-.25.15Zm1,.41s.05,0,.08,0h0q0-.08,0-.09l-.92-.57s-.06,0-.08,0,0,.08,0,.09Z"/><path class="cls-1" d="M234.69,16.94c-.09-.06-.08-.17,0-.34s.21-.21.3-.15l1,.69q.13.09,0,.33c-.11.17-.21.22-.3.16Zm1.15.52s.06,0,.09-.05h0c0-.05,0-.08,0-.1l-1-.69s-.06,0-.1,0,0,.09,0,.11Z"/><path class="cls-1" d="M236.06,18c-.11-.09-.09-.24.08-.44s.29-.26.41-.17l1.27,1c.11.08.09.23-.07.43s-.3.26-.41.18Zm1.45.8s.07,0,.12-.05h0c.05-.06.06-.1,0-.13l-1.27-1s-.08,0-.13,0-.06.11,0,.13Z"/><path class="cls-1" d="M222.21,10.39l-.05.22h0l0-.07-.45-.1,0,.07h0l0-.14.48.1,0-.07Z"/><path class="cls-1" d="M223.61,10.7l-.09.29-.05,0,0-.09-.58-.18,0,.09,0,0,.06-.19.63.2,0-.09Z"/><path class="cls-1" d="M224.4,11l-.12.27,0,0,0-.09-.56-.23,0,.08,0,0,.08-.18.61.26,0-.09Z"/><path class="cls-1" d="M225.25,11.33l-.13.31-.05,0,0-.1-.63-.26,0,.1-.06,0,.09-.2.68.27,0-.1Z"/><path class="cls-1" d="M226.08,11.67,226,12l-.05,0,0-.1-.64-.26,0,.1-.05,0,.08-.2.69.27,0-.11Z"/><path class="cls-1" d="M227.12,12.07l-.17.37-.06,0,.05-.12-.77-.34,0,.12-.06,0,.11-.25.83.38.05-.13Z"/><path class="cls-1" d="M229.56,13.21l-.25.49-.09,0,.08-.16-1-.51-.08.16-.08,0,.16-.33,1.09.56.08-.17Z"/><path class="cls-1" d="M234.72,16.24l-.36.53-.09-.06.12-.17-1.1-.74-.12.17-.09-.06.24-.36,1.19.8.12-.18Z"/><path class="cls-1" d="M229.73,21.14c.05,0,.05.09,0,.18s-.11.12-.16.09l-.57-.36s0-.09,0-.18.11-.12.16-.09Zm-.62-.26s0,0-.05,0,0,.05,0,.06l.57.35s0,0,0,0h0s0-.05,0-.06Z"/><path class="cls-1" d="M231.77,22.22c.06,0,.06.1,0,.22s-.12.16-.18.13l-.73-.37c-.06,0-.06-.11,0-.22s.12-.16.18-.13ZM231,22s0,0-.06,0,0,.06,0,.07l.73.37s0,0,.06,0h0s0-.06,0-.07Z"/><path class="cls-1" d="M233,22.74c.07,0,.08.11,0,.25s-.13.19-.2.16l-.86-.37c-.07,0-.08-.12,0-.26s.12-.19.2-.15Zm-.92-.23s-.05,0-.07,0,0,.06,0,.07l.86.37s.05,0,.06,0h0c0-.05,0-.07,0-.08Z"/><path class="cls-1" d="M234.22,23.27c.08,0,.09.12,0,.27s-.13.2-.21.16l-.91-.39q-.12,0,0-.27c.07-.14.14-.2.22-.16Zm-1-.24s-.05,0-.07,0,0,.07,0,.08l.92.39s0,0,.06-.05h0s0-.07,0-.08Z"/><path class="cls-1" d="M237.17,24.23c.11,0,.13.14.07.32s-.14.25-.24.22l-1.17-.37c-.1,0-.13-.14-.07-.32s.14-.25.24-.22Zm-1.23-.18s-.06,0-.08.06,0,.09,0,.1l1.17.37s.06,0,.08-.06h0c0-.06,0-.09,0-.1Z"/><path class="cls-1" d="M238.75,24.69c.11,0,.13.14.07.33s-.13.27-.24.24l-1.21-.35c-.1,0-.13-.14-.07-.33s.14-.28.24-.25Zm-1.27-.16s-.06,0-.08.08,0,.09,0,.1l1.21.35s.06,0,.08-.07h0c0-.06,0-.09,0-.1Z"/><path class="cls-1" d="M240.5,25c.11,0,.14.15.1.36s-.13.3-.25.27L239,25.36c-.11,0-.15-.14-.1-.35s.13-.3.25-.27ZM239.13,25s-.07,0-.08.08,0,.1,0,.11l1.32.3s.06,0,.08-.08h0c0-.07,0-.1,0-.11Z"/><path class="cls-1" d="M244.06,25.52c.13,0,.18.14.15.38s-.1.35-.23.34l-1.51-.19c-.13,0-.18-.14-.15-.38s.11-.35.24-.34Zm-1.53.06s-.07,0-.08.11,0,.11.05.11L244,26s.06,0,.07-.1h0c0-.08,0-.11-.05-.12Z"/><path class="cls-1" d="M225.48,18.19l0-.05-.35-.27.08-.1,0,0,0,.05.32.25,0-.06,0,0-.12.15Z"/><path class="cls-1" d="M226,18.76l.05-.07-.48-.37.11-.14,0,0-.06.07.45.34.05-.07,0,0-.16.22Z"/><path class="cls-1" d="M226.58,19.25l.06-.07-.49-.37.11-.14,0,0-.05.08.44.33.06-.07,0,0-.16.22Z"/><path class="cls-1" d="M227.21,19.81l.06-.08-.54-.41.13-.16,0,0-.06.08.49.38.06-.08.05,0-.19.24Z"/><path class="cls-1" d="M227.94,20.31l.06-.09-.57-.36.11-.17,0,0-.05.08.53.34.05-.09,0,0-.16.26Z"/><path class="cls-1" d="M228.76,21l.07-.1-.7-.45.14-.21,0,0-.07.11.65.41.06-.1.06,0-.2.32Z"/><path class="cls-1" d="M230.54,22.09l.07-.13-.86-.45.14-.26.06,0-.06.12.79.42.07-.12.06,0-.2.39Z"/><path class="cls-1" d="M235.48,24.3l.06-.19-1.25-.39.12-.37.1,0-.06.18,1.15.36.06-.18.1,0-.18.57Z"/><path class="cls-1" d="M242.09,26l0-.23-1.51-.23.07-.45.11,0,0,.22,1.39.21,0-.22.11,0-.1.68Z"/><path class="cls-1" d="M246,25.41c.12,0,.16.12.13.31s-.1.26-.22.24l-1.35-.23c-.11,0-.16-.12-.13-.3s.11-.26.23-.24Zm-1.38,0s-.06,0-.07.07a.07.07,0,0,0,.05.09l1.34.23s.06,0,.07-.07h0c0-.05,0-.08,0-.09Z"/><path class="cls-1" d="M231.73,19.25c.05,0,0,.09,0,.17s-.11.11-.15.08l-.49-.35s0-.09,0-.17.11-.11.16-.08Zm-.55-.26s0,0,0,0,0,0,0,0l.49.35s0,0,0,0h0s0,0,0-.05Z"/><path class="cls-1" d="M233.48,20.43c.05,0,.05.1,0,.2s-.12.13-.17.09l-.61-.39c-.05,0-.05-.1,0-.2s.12-.13.17-.09Zm-.68-.29s0,0-.05,0,0,0,0,.06l.61.39s0,0,0,0h0s0-.05,0-.06Z"/><path class="cls-1" d="M234.48,21c.07,0,.06.11,0,.23s-.13.15-.19.12l-.73-.41c-.06,0-.06-.11,0-.23s.13-.15.2-.12Zm-.79-.29s0,0-.06,0,0,.06,0,.07l.73.41s0,0,.06,0h0a0,0,0,0,0,0-.07Z"/><path class="cls-1" d="M235.56,21.62q.1.06,0,.24c-.07.12-.14.17-.2.13l-.77-.44q-.1,0,0-.24c.07-.12.14-.16.2-.12Zm-.84-.31s0,0-.06,0,0,.06,0,.08l.77.43s0,0,.06,0h0s0-.06,0-.07Z"/><path class="cls-1" d="M238.05,22.82q.12,0,0,.27c-.07.15-.14.2-.22.17l-.92-.41q-.12,0,0-.27c.07-.15.14-.2.22-.17Zm-1-.26s-.05,0-.07.05,0,.08,0,.09l.93.4s0,0,.07,0h0s0-.07,0-.08Z"/><path class="cls-1" d="M239.56,23.4c.09,0,.11.15,0,.33s-.16.24-.25.2l-1.13-.46c-.09,0-.11-.15,0-.32s.16-.25.25-.21Zm-1.2-.28s-.06,0-.08.07,0,.08,0,.1l1.12.46s.06,0,.08-.07h0c0-.05,0-.08,0-.1Z"/><path class="cls-1" d="M241.12,24c.09,0,.11.14,0,.32s-.15.25-.25.22l-1.14-.44c-.09,0-.11-.14,0-.32s.15-.26.25-.22Zm-1.21-.25s-.06,0-.08.06,0,.09,0,.1l1.13.44s.06,0,.08-.06h0c0-.05,0-.08,0-.1Z"/><path class="cls-1" d="M242.4,24.45c.08,0,.1.11.06.26s-.1.22-.18.2l-.94-.25c-.08,0-.1-.1-.06-.26s.1-.22.18-.2Zm-1-.09s0,0-.06.06,0,.08,0,.08l.94.25s.05,0,.06-.06h0c0-.05,0-.08,0-.08Z"/><path class="cls-1" d="M228,16.33l0,0-.29-.27.08-.09,0,0,0,.05.26.25,0-.05,0,0-.12.13Z"/><path class="cls-1" d="M228.47,16.88l.06-.06-.4-.37.11-.12,0,0-.05.06.36.34.06-.06,0,0-.17.18Z"/><path class="cls-1" d="M229,17.38l.05-.06-.39-.37.11-.12,0,0-.05.06.36.34,0-.06,0,0-.16.18Z"/><path class="cls-1" d="M229.57,17.9l.06-.07-.46-.39.12-.14,0,0,0,.07.42.36.06-.07,0,0-.17.21Z"/><path class="cls-1" d="M230.16,18.39l.06-.07-.47-.38.12-.14,0,0-.05.07.43.35.05-.07,0,0-.17.21Z"/><path class="cls-1" d="M230.84,19l.08-.09-.57-.47.14-.17,0,0-.07.08.53.44.07-.09,0,0-.21.26Z"/><path class="cls-1" d="M232.41,20.18l.08-.11-.72-.48.14-.22.05,0-.07.11.67.44.07-.11.05,0-.21.33Z"/><path class="cls-1" d="M236.58,22.73l.08-.15-1-.53.15-.31.08,0-.07.15,1,.48.07-.15.08,0-.23.47Z"/><path class="cls-1" d="M244.08,25.47l0-.22-1.59-.33.09-.42.12,0,0,.21,1.47.3,0-.21.12,0-.13.65Z"/><path class="cls-1" d="M236.12,18s0,.11-.05.2-.14.12-.19.08l-.55-.47c-.05,0,0-.1,0-.2s.14-.12.19-.08Zm-.63-.37s0,0-.06,0,0,.05,0,.07l.55.46s0,0,.06,0h0s0-.05,0-.06Z"/><path class="cls-1" d="M238.1,19.57c.06.05.05.13,0,.24s-.16.14-.22.09l-.69-.53c-.06-.05-.05-.13,0-.24s.16-.14.22-.09Zm-.78-.42s0,0-.07,0,0,.06,0,.07l.69.54s0,0,.07,0h0s0-.06,0-.07Z"/><path class="cls-1" d="M239.25,20.36q.1.08,0,.27c-.09.14-.17.18-.24.13l-.83-.57c-.08-.05-.07-.14,0-.27s.17-.17.25-.13Zm-.93-.43s0,0-.07,0,0,.07,0,.08l.83.57s.05,0,.08,0h0s0-.07,0-.08Z"/><path class="cls-1" d="M240.49,21.22c.07.05.06.15,0,.29s-.19.18-.26.13l-.88-.6c-.08-.05-.07-.15,0-.29s.19-.19.26-.13Zm-1-.46s-.05,0-.08,0,0,.07,0,.09l.88.6s0,0,.08,0h0s0-.07,0-.09Z"/><path class="cls-1" d="M243.36,22.91c.09.05.09.16,0,.34s-.19.23-.28.17L242,22.84q-.13-.07,0-.33c.09-.17.19-.23.28-.18Zm-1.17-.4s-.06,0-.09,0,0,.09,0,.1l1.07.59s.06,0,.08-.06h0c0-.05,0-.08,0-.1Z"/><path class="cls-1" d="M245,23.72c.12.06.12.19,0,.4s-.21.28-.33.22l-1.3-.67c-.11-.06-.12-.19,0-.39s.22-.29.33-.23Zm-1.41-.45s-.07,0-.11.06,0,.11,0,.13l1.31.66s.07,0,.1-.06h0c0-.06,0-.1,0-.12Z"/><path class="cls-1" d="M231.94,14.08,232,14l-.31-.35.1-.1,0,0-.06.05.3.32,0,0,0,0-.16.14Z"/><path class="cls-1" d="M232.44,14.79l.07-.07-.43-.48.14-.13,0,0-.07.07.41.45.07-.07,0,0-.22.2Z"/><path class="cls-1" d="M233,15.45l.07-.07-.43-.49.14-.13,0,0-.07.06.4.45.07-.06,0,0-.22.19Z"/><path class="cls-1" d="M233.66,16.13l.08-.08-.52-.52.16-.15,0,0-.08.07.48.48.07-.08,0,0-.23.23Z"/><path class="cls-1" d="M234.32,16.78l.08-.08-.53-.5L234,16l0,0-.07.07.48.46.08-.07,0,0-.23.24Z"/><path class="cls-1" d="M235.08,17.57l.09-.1-.63-.63.19-.19,0,.05-.09.09.59.58.09-.09,0,0-.28.29Z"/><path class="cls-1" d="M236.84,19.16l.1-.12-.82-.65.2-.25.06.05-.09.12.75.6.1-.12.06.05-.3.37Z"/><path class="cls-1" d="M241.59,22.66l.11-.18-1.2-.74.23-.36.09.06-.11.17,1.11.68.1-.17.1.06-.34.54Z"/><path class="cls-1" d="M233.94,22.31s0,.07,0,.16-.08.12-.13.1l-.51-.24c-.05,0-.05-.07,0-.16s.09-.12.13-.1Zm-.56-.15s0,0,0,0,0,0,0,0l.52.24s0,0,0,0h0s0,0,0-.05Z"/><path class="cls-1" d="M235.76,23.11c.06,0,.07.08,0,.18s-.09.14-.14.12l-.64-.26c-.05,0-.06-.09,0-.19s.09-.14.15-.11Zm-.67-.16s0,0-.05,0,0,.05,0,.05l.63.26s0,0,0,0h0s0-.05,0-.06Z"/><path class="cls-1" d="M236.8,23.52c.07,0,.08.09,0,.21s-.09.17-.16.15l-.74-.26c-.07,0-.08-.09,0-.21s.09-.17.16-.14Zm-.78-.13s0,0-.05,0,0,.06,0,.07l.74.25s0,0,.05,0h0s0-.06,0-.06Z"/><path class="cls-1" d="M239.15,24.32c.08,0,.09.11,0,.25s-.11.19-.18.16l-.86-.29c-.07,0-.09-.11,0-.24s.11-.19.18-.17Zm-.9-.15s0,0-.06,0,0,.07,0,.08l.85.29s.05,0,.06-.05h0s0-.07,0-.07Z"/><path class="cls-1" d="M230,20.24l0,0-.31-.2.06-.09h0l0,.05.29.18,0,0h0l-.09.14Z"/><path class="cls-1" d="M230.49,20.67l0-.07-.43-.27.09-.13,0,0,0,.06.4.26,0-.06,0,0-.13.19Z"/><path class="cls-1" d="M231.08,21l0-.06-.43-.28.08-.13,0,0,0,.07.4.25,0-.06,0,0-.12.19Z"/><path class="cls-1" d="M231.69,21.43l0-.08-.49-.28.08-.15,0,0,0,.07.46.26,0-.07,0,0-.13.23Z"/><path class="cls-1" d="M232.33,21.78l0-.08-.5-.27.08-.15,0,0,0,.08.46.25,0-.08,0,0-.12.23Z"/><path class="cls-1" d="M233.06,22.22l.06-.09-.61-.34.1-.19,0,0,0,.09.56.31.05-.09.05,0-.16.28Z"/><path class="cls-1" d="M234.73,23.06l.05-.12-.76-.32.1-.23.06,0-.05.11.7.3,0-.11.06,0-.14.34Z"/><path class="cls-1" d="M237.83,24.37l0-.15-1-.29.09-.29.07,0,0,.14.91.27,0-.15.08,0-.13.44Z"/><path class="cls-1" d="M240.37,25.23l0-.18-1.17-.32.09-.35.09,0,0,.18,1.08.29.05-.17.09,0-.15.53Z"/><path class="cls-1" d="M241.79,25.45l0-.16-1.12-.19.06-.34.08,0,0,.16,1,.17,0-.16H242l-.09.51Z"/><path class="cls-1" d="M238.07,18.29s0,.1,0,.18-.13.1-.18.06l-.47-.42s0-.1,0-.18.14-.1.18-.07Zm-.55-.34s0,0-.05,0,0,0,0,.05l.48.43s0,0,0,0h0s0,0,0-.05Z"/><path class="cls-1" d="M239.79,19.76c.05,0,0,.11,0,.2s-.14.13-.2.08l-.6-.49s0-.11,0-.21.15-.12.2-.08Zm-.68-.4s0,0-.07,0,0,.05,0,.06l.61.49s0,0,.06,0h0s0-.05,0-.06Z"/><path class="cls-1" d="M240.79,20.48q.09.06,0,.24c-.09.11-.16.15-.22.1l-.73-.52q-.09-.06,0-.24c.09-.11.16-.15.22-.1Zm-.81-.4s0,0-.07,0,0,.06,0,.07l.72.52s0,0,.07,0h0s0-.06,0-.07Z"/><path class="cls-1" d="M241.86,21.27c.07,0,.06.13,0,.25s-.17.16-.23.11l-.77-.55c-.07,0-.06-.13,0-.25s.17-.16.23-.12Zm-.86-.43s0,0-.07,0,0,.07,0,.08l.77.55s0,0,.07,0h0s0-.06,0-.08Z"/><path class="cls-1" d="M244.55,23c.1.06.1.18,0,.35s-.2.24-.29.18l-1.11-.64c-.1-.06-.1-.17,0-.35s.2-.23.3-.18Zm-1.21-.45s-.06,0-.1,0,0,.09,0,.11l1.1.64s.07,0,.1,0h0c0-.06,0-.09,0-.11Z"/><path class="cls-1" d="M234.46,14.75l0,0-.27-.32.1-.08,0,0-.05,0,.25.3.05,0,0,0-.15.13Z"/><path class="cls-1" d="M234.89,15.39l.06-.06-.37-.44.13-.11,0,0-.06.06.34.4.07,0,0,0-.2.17Z"/><path class="cls-1" d="M235.4,16l.06-.05-.37-.44.13-.12,0,0-.06.05.34.41.07-.06,0,0-.19.17Z"/><path class="cls-1" d="M235.94,16.6l.07-.07-.44-.46.14-.14,0,0-.07.06.41.43.07-.06,0,0-.21.2Z"/><path class="cls-1" d="M236.51,17.19l.07-.07-.46-.45.14-.14,0,0-.07.06.42.42.06-.06,0,0-.21.21Z"/><path class="cls-1" d="M237.16,17.91l.09-.08-.55-.57.17-.17,0,.05-.08.08.51.52.08-.08,0,.05-.26.24Z"/><path class="cls-1" d="M238.68,19.36l.09-.11-.7-.59.18-.21.05,0-.09.1.66.55L239,19l.06.05-.27.32Z"/><path class="cls-1" d="M242.8,22.57l.11-.16-1-.68.2-.31.08,0-.1.15,1,.63.1-.15.08,0-.3.47Z"/><path class="cls-1" d="M233.76,19.09c.05,0,0,.1,0,.19s-.13.12-.18.09L233,19c-.05,0,0-.1,0-.19s.13-.13.18-.09Zm-.61-.3s0,0-.06,0,0,.05,0,.06l.54.39s0,0,.06,0h0s0,0,0,0Z"/><path class="cls-1" d="M235.73,20.42c.06,0,.05.11,0,.22s-.13.15-.19.11l-.69-.45c-.06,0-.05-.11,0-.22s.13-.14.19-.1Zm-.76-.33s0,0-.06,0,0,.06,0,.07l.68.44s0,0,.06,0h0s0-.05,0-.07Z"/><path class="cls-1" d="M236.86,21.06c.07,0,.07.12,0,.25s-.14.18-.21.14l-.82-.46c-.07,0-.07-.12,0-.25s.15-.18.22-.14Zm-.9-.32s0,0-.06,0,0,.06,0,.07l.82.46s0,0,.06,0h0s0-.06,0-.07Z"/><path class="cls-1" d="M238.08,21.76c.07,0,.07.13,0,.27s-.15.18-.23.14l-.87-.49c-.07,0-.07-.13,0-.27s.15-.18.23-.14Zm-1-.35s0,0-.08.05,0,.07,0,.08l.86.49s.05,0,.07,0h0s0-.06,0-.08Z"/><path class="cls-1" d="M240.88,23.11c.09,0,.1.14,0,.3s-.15.23-.24.19l-1-.46q-.13-.06,0-.3c.08-.17.16-.23.25-.19Zm-1.12-.29s0,0-.08.06,0,.08,0,.09l1,.46s0,0,.07-.06h0c0-.05,0-.08,0-.09Z"/><path class="cls-1" d="M242.57,23.76c.11,0,.12.17,0,.37s-.18.27-.29.23l-1.26-.52c-.11,0-.13-.17,0-.37s.18-.28.29-.23Zm-1.35-.31s-.07,0-.09.07,0,.1,0,.11l1.27.52s.06,0,.09-.07h0c0-.06,0-.1,0-.11Z"/><path class="cls-1" d="M229.57,15.81l.05-.05-.32-.31.09-.09,0,0,0,0,.3.28,0-.05,0,0-.14.15Z"/><path class="cls-1" d="M230.09,16.42l.07-.06-.45-.42.13-.13,0,0-.06.06.41.39.06-.07,0,0-.18.2Z"/><path class="cls-1" d="M230.69,17l.07-.07-.44-.42.12-.13,0,0-.06.07.41.38.06-.06,0,0-.19.2Z"/><path class="cls-1" d="M231.33,17.57l.07-.08-.52-.44.13-.15,0,0L231,17l.48.4.06-.07,0,0-.2.23Z"/><path class="cls-1" d="M232,18.12l.06-.08-.53-.42.13-.16,0,0-.06.08.49.39.06-.08,0,0-.19.24Z"/><path class="cls-1" d="M232.76,18.8l.09-.1-.64-.53.16-.2,0,.05-.07.09.59.49.08-.09,0,0-.24.29Z"/><path class="cls-1" d="M234.53,20.14l.08-.13-.81-.54.16-.24.06,0-.07.12.74.5.08-.12.07,0-.25.37Z"/><path class="cls-1" d="M239.22,23l.09-.18-1.18-.59.18-.35.09.05-.09.17,1.09.54.08-.17.09.05-.26.53Z"/><path class="cls-1" d="M243.91,25l.08-.21-1.4-.51.15-.42.11,0-.07.2,1.29.47.07-.2.11,0-.23.63Z"/><path class="cls-1" d="M245.51,25.38l0-.2-1.35-.29.09-.41.1,0,0,.19,1.24.27,0-.2.1,0-.13.61Z"/><path class="cls-1" d="M242.56,23.82l.07-.18-1.16-.46.14-.35.09,0-.07.16,1.07.43.07-.17.09,0-.21.52Z"/><path class="cls-1" d="M244.09,24c.09,0,.1.12,0,.28s-.13.22-.21.18l-1-.35c-.08,0-.09-.13,0-.28s.13-.22.22-.19Zm-1-.2s-.05,0-.07.06,0,.07,0,.08l1,.36s.05,0,.07-.05h0c0-.05,0-.08,0-.09Z"/><path class="cls-1" d="M245.53,24.52c.07,0,.1.08.07.2s-.07.16-.15.15l-.86-.2c-.08,0-.1-.08-.07-.2s.07-.16.15-.15Zm-.89-.07s0,0,0,0,0,.06,0,.06l.86.2s0,0,.05-.05h0s0-.05,0-.06Z"/><path class="cls-1" d="M234.69,18.59s0,.09,0,.16-.11.1-.15.07l-.43-.35s0-.09,0-.16.11-.1.15-.07Zm-.49-.27s0,0,0,0,0,0,0,.05l.44.35s0,0,0,0h0s0,0,0,0Z"/><path class="cls-1" d="M236.23,19.72s0,.08,0,.16-.11.11-.16.07l-.5-.36s0-.09,0-.17.11-.1.15-.07Zm-.56-.29s0,0,0,0,0,0,0,.05l.5.37s0,0,0,0h0s0,0,0-.05Z"/><path class="cls-1" d="M237.06,20.24c.05,0,0,.09,0,.19s-.11.12-.17.09l-.59-.38c-.06,0-.05-.1,0-.2s.12-.12.17-.09ZM236.4,20s0,0-.06,0,0,.05,0,.06l.6.38s0,0,.05,0h0a0,0,0,0,0,0-.06Z"/><path class="cls-1" d="M238,20.79c.06,0,.05.1,0,.2s-.13.14-.18.1l-.64-.41c-.05,0-.05-.1,0-.2s.12-.13.18-.1Zm-.7-.3s0,0-.06,0,0,.05,0,.06l.64.41s0,0,0,0h0s0-.05,0-.06Z"/><path class="cls-1" d="M240,22.05c.06,0,.06.11,0,.23s-.14.16-.2.12l-.74-.44c-.07,0-.07-.11,0-.23s.14-.16.2-.12Zm-.82-.32s0,0-.06,0,0,.06,0,.07l.74.44s0,0,.06,0h0s0-.06,0-.07Z"/><path class="cls-1" d="M241.35,22.64c.09,0,.1.14,0,.3s-.16.23-.25.18l-1-.49c-.09,0-.09-.14,0-.31s.16-.22.25-.18Zm-1.1-.33s-.06,0-.08.06,0,.08,0,.09l1,.49s.05,0,.08-.05h0s0-.08,0-.09Z"/><path class="cls-1" d="M231.36,15.76l0,0-.21-.27.08-.07,0,0,0,0,.2.25,0,0v0l-.12.1Z"/><path class="cls-1" d="M232,16.54l.05-.05-.32-.33.1-.1,0,0-.05,0,.29.31,0,0,0,0-.15.15Z"/><path class="cls-1" d="M232.41,16.94l.05-.05-.35-.31.09-.1,0,0,0,.05.32.28.05,0,0,0-.13.15Z"/><path class="cls-1" d="M232.86,17.37l0-.06-.38-.34.11-.12,0,0,0,.06.35.32,0-.06,0,0-.15.17Z"/><path class="cls-1" d="M233.32,17.79l.06-.06-.38-.34.1-.12,0,0,0,.06.35.32,0-.06,0,0-.16.17Z"/><path class="cls-1" d="M233.88,18.31l.06-.07-.48-.41.12-.14,0,0-.06.07.44.38.06-.08,0,0-.18.21Z"/><path class="cls-1" d="M235.32,19.48l.08-.1-.68-.51.15-.2.06,0-.08.09.62.48.08-.1,0,0-.23.3Z"/><path class="cls-1" d="M238.76,21.8l.07-.13-.86-.5.15-.26.07,0-.07.13.79.46.07-.13.07,0-.23.39Z"/><path class="cls-1" d="M232.36,23.54s.06.08,0,.17-.09.13-.14.11l-.58-.27s0-.08,0-.17.09-.13.14-.1Zm-.62-.17a.05.05,0,0,0,0,0s0,.05,0,.06l.57.26s0,0,0,0h0s0-.05,0-.05Z"/><path class="cls-1" d="M234.39,24.31c.06,0,.07.09,0,.2s-.09.16-.15.14l-.73-.25q-.09,0,0-.21c0-.12.09-.16.16-.14Zm-.77-.14s0,0,0,0,0,.06,0,.06l.72.26s0,0,.05,0h0s0-.06,0-.06Z"/><path class="cls-1" d="M235.57,24.64q.12,0,.06.24c0,.13-.1.19-.17.17l-.85-.24c-.07,0-.09-.1-.05-.24s.09-.19.17-.17Zm-.88-.1s0,0-.06.05,0,.07,0,.07l.85.25s0,0,.05-.05h0s0-.06,0-.07Z"/><path class="cls-1" d="M236.81,25c.08,0,.1.1.05.25s-.1.2-.17.18l-.9-.26c-.08,0-.1-.1-.06-.25s.1-.2.18-.18Zm-.94-.11s-.05,0-.06.06,0,.06,0,.07l.9.26s0,0,.06-.06h0s0-.06,0-.07Z"/><path class="cls-1" d="M239.69,25.53c.1,0,.13.12.1.29s-.1.25-.2.23l-1.14-.2c-.1,0-.13-.12-.1-.29s.09-.25.19-.24Zm-1.18,0s0,0-.06.07,0,.08,0,.08l1.14.21s.06,0,.07-.07h0c0-.05,0-.08,0-.09Z"/><path class="cls-1" d="M241.21,25.76c.1,0,.14.12.11.31s-.09.27-.19.25L240,26.14c-.1,0-.14-.12-.11-.3s.1-.27.2-.26Zm-1.2,0s-.06,0-.06.07,0,.09,0,.1l1.18.18s.05,0,.06-.08h0c0-.05,0-.09,0-.09Z"/><path class="cls-1" d="M242.89,25.88c.11,0,.15.12.13.32s-.08.3-.19.29l-1.27-.13c-.11,0-.16-.11-.14-.31s.09-.3.2-.29ZM241.6,26s-.06,0-.07.09,0,.09.05.09l1.27.13s.05,0,.06-.09h0c0-.06,0-.09,0-.09Z"/><path class="cls-1" d="M246.28,25.9c.12,0,.18.11.18.34s-.06.34-.18.34h-1.43c-.12,0-.18-.11-.18-.34s.06-.34.18-.34Zm-1.43.25s-.06,0-.06.1,0,.1.06.1h1.43s.06,0,.06-.1h0c0-.07,0-.1-.06-.1Z"/><path class="cls-1" d="M228,21.31l0-.06-.36-.2.07-.11h0l0,.06.34.19,0-.06,0,0-.09.16Z"/><path class="cls-1" d="M228.61,21.77l0-.07-.5-.29.09-.14,0,0,0,.07.46.26,0-.07,0,0-.13.23Z"/><path class="cls-1" d="M229.19,22.16l0-.07-.49-.29.08-.15,0,0,0,.07.46.26,0-.07,0,0-.13.22Z"/><path class="cls-1" d="M229.84,22.61l0-.09-.55-.31.1-.17,0,0,0,.08.51.29.05-.08,0,0-.14.25Z"/><path class="cls-1" d="M230.59,23l0-.09-.57-.27.08-.18,0,0,0,.08.53.25,0-.08,0,0-.12.26Z"/><path class="cls-1" d="M231.43,23.49l0-.11-.7-.33.1-.22.05,0-.05.1.66.31,0-.1.06,0-.15.32Z"/><path class="cls-1" d="M233.23,24.34l.05-.13-.86-.32.1-.26.06,0,0,.12.79.29,0-.12.06,0-.14.39Z"/><path class="cls-1" d="M238.12,25.8l0-.19-1.22-.2L237,25l.09,0,0,.17,1.12.2,0-.18.09,0-.09.55Z"/><path class="cls-1" d="M244.49,26.59v-.22l-1.44,0v-.43h.11v.21l1.32,0v-.21h.11l0,.65Z"/><path class="cls-1" d="M233.69,39.24s-.08,0-.15-.05-.07-.12,0-.15l.42-.39s.08,0,.14.05.08.12,0,.15Zm.36-.46s0,0,0-.05h0s0,0,0,0l-.42.39s0,0,0,0,0,0,0,0Z"/><path class="cls-1" d="M235.09,38.05c-.05,0-.11,0-.17-.07s-.08-.15,0-.19l.55-.42s.1,0,.17.07.07.15,0,.19Zm.48-.51s0,0,0-.06h0s0,0-.05,0l-.55.42s0,0,0,.06,0,0,.06,0Z"/><path class="cls-1" d="M235.9,37.46c-.06,0-.12,0-.19-.1s-.08-.18,0-.22l.66-.44c.05,0,.12,0,.19.1s.08.17,0,.21Zm.58-.56s0,0,0-.06h0s0,0-.06,0l-.66.44s0,0,0,.07,0,0,.06,0Z"/><path class="cls-1" d="M236.82,36.84c-.06,0-.13,0-.2-.1s-.08-.19,0-.23l.7-.47c.06,0,.12,0,.2.1s.08.19,0,.23Zm.62-.58s0,0,0-.07h0s-.05,0-.06,0l-.7.48s0,0,0,.07,0,0,.06,0Z"/><path class="cls-1" d="M238.92,35.6c-.08,0-.16,0-.24-.14s-.07-.24,0-.28l.92-.5c.08,0,.16,0,.23.15s.08.23,0,.28Zm.84-.64s0,0,0-.08h0s0,0-.07,0l-.92.5s0,0,0,.08.05.06.08.05Z"/><path class="cls-1" d="M240.13,35c-.09,0-.17,0-.24-.17s-.08-.25,0-.29l.95-.48c.08-.05.16,0,.24.16s.07.25,0,.29Zm.87-.65s0,0,0-.09h0s0-.06-.08,0l-1,.49s0,0,0,.09.05.06.08.05Z"/><path class="cls-1" d="M241.43,34.37c-.09,0-.17,0-.25-.19s-.06-.27,0-.31l1-.46c.1,0,.18,0,.25.19s.07.27,0,.31Zm1-.63s0-.05,0-.1h0s0-.07-.08,0l-1.05.46s0,0,0,.09,0,.07.07.06Z"/><path class="cls-1" d="M244.16,33.35c-.11,0-.19-.05-.25-.25s0-.3.07-.34l1.22-.39c.11,0,.19.05.25.24s0,.31-.06.35Zm1.16-.6s0,0,0-.1h0c0-.06,0-.09-.07-.07L244,33s0,0,0,.1,0,.08.08.07Z"/><path class="cls-1" d="M231,42l.12.11v0l-.05,0-.23.26,0,0,0,0-.08-.07.25-.28,0,0Z"/><path class="cls-1" d="M231.41,41.38l.18.16,0,0-.05,0-.32.35.05.05,0,0-.12-.11.35-.38-.06-.05Z"/><path class="cls-1" d="M231.8,40.89,232,41l0,0-.06,0-.32.35.06.06,0,0-.11-.1.34-.38-.06,0Z"/><path class="cls-1" d="M232.24,40.32l.19.17,0,0-.06-.06-.35.39.06.06,0,0-.13-.12.39-.42-.07-.06Z"/><path class="cls-1" d="M232.78,39.79,233,40l0,0,0-.06-.39.36.06.06,0,0-.12-.12.42-.4-.06-.06Z"/><path class="cls-1" d="M233.37,39.12l.22.23,0,0-.07-.08-.48.45.07.07,0,0-.14-.15.51-.49-.07-.07Z"/><path class="cls-1" d="M234.68,37.89l.24.29,0,0-.08-.1-.6.48.08.09-.05,0-.15-.19.64-.52-.08-.09Z"/><path class="cls-1" d="M238.49,35.27l.24.45-.08,0-.07-.15-.91.48.07.15-.07,0-.16-.3,1-.52-.08-.15Z"/><path class="cls-1" d="M243.76,32.83l.19.55-.09,0-.06-.18-1.13.39.06.18-.1,0-.12-.37,1.22-.42-.06-.19Z"/><path class="cls-1" d="M245.43,30.66c-.1,0-.14-.09-.13-.25s.07-.22.17-.22l1.16.1c.1,0,.14.09.13.25s-.07.23-.17.22Zm1.17-.06s.05,0,.06-.07h0c0-.05,0-.07,0-.07l-1.15-.1s-.05,0-.06.06,0,.08,0,.08Z"/><path class="cls-1" d="M233.06,33s-.08,0-.11-.1,0-.13,0-.14l.48-.19s.08,0,.11.1,0,.13,0,.15Zm.44-.27s0,0,0,0h0s0,0,0,0l-.47.18s0,0,0,0,0,0,0,0Z"/><path class="cls-1" d="M234.63,32.39s-.09,0-.12-.12,0-.14,0-.16l.59-.2q.08,0,.12.12c0,.09,0,.15,0,.16Zm.56-.29a0,0,0,0,0,0-.05h0s0,0,0,0l-.59.2s0,0,0,0,0,0,0,0Z"/><path class="cls-1" d="M235.48,32.12c-.06,0-.1,0-.13-.14s0-.17,0-.18l.69-.19c.06,0,.1,0,.13.14s0,.17-.05.19Zm.65-.29a0,0,0,0,0,0-.06h0s0-.05,0,0l-.69.18s0,0,0,.06,0,0,0,0Z"/><path class="cls-1" d="M236.46,31.85c-.06,0-.11,0-.14-.15s0-.18.05-.19l.72-.2c.07,0,.11,0,.14.15s0,.18,0,.2Zm.69-.31a0,0,0,0,0,0-.06h0s0-.05,0-.05l-.72.2s0,0,0,.06,0,0,.05,0Z"/><path class="cls-1" d="M238.64,31.34c-.07,0-.12-.05-.14-.18s0-.21.07-.22l.85-.14c.07,0,.12.05.14.18s0,.21-.07.22Zm.82-.28s0,0,0-.06h0s0-.06-.05-.06l-.84.14s0,0,0,.07,0,.05.05.05Z"/><path class="cls-1" d="M239.82,31.19c-.09,0-.14-.07-.16-.23s0-.25.1-.26l1-.14c.09,0,.14.06.16.22s0,.25-.1.27Zm1-.31s0,0,0-.08h0c0-.05,0-.07,0-.07l-1,.14s0,0,0,.08,0,.07.05.07Z"/><path class="cls-1" d="M241.23,31c-.09,0-.14-.07-.16-.23s0-.25.1-.26l1-.11c.08,0,.14.06.16.22s0,.25-.11.26Zm1-.29s0,0,0-.07h0s0-.07-.05-.06l-1,.11s0,0,0,.08,0,.07.05.07Z"/><path class="cls-1" d="M242.58,30.79c-.07,0-.11-.07-.11-.21s0-.2.11-.2h.82c.07,0,.11.07.11.2s0,.21-.11.21Zm.82-.14s0,0,0-.07h0s0-.06,0-.06h-.82s0,0,0,.06,0,.07,0,.07Z"/><path class="cls-1" d="M229.87,34.39l.08.13,0,0,0,0-.27.15,0,0,0,0,0-.09.3-.16,0-.05Z"/><path class="cls-1" d="M230.38,34l.1.18,0,0,0-.06-.37.21,0,.06h0l-.06-.12.4-.22,0-.06Z"/><path class="cls-1" d="M230.92,33.73l.1.19h0l0,0-.37.2,0,.06h0l-.06-.12.4-.22,0-.06Z"/><path class="cls-1" d="M231.5,33.43l.1.21,0,0,0-.07-.43.2,0,.07,0,0-.07-.14.46-.22,0-.07Z"/><path class="cls-1" d="M232.1,33.15l.09.21,0,0,0-.07-.43.2,0,.06,0,0-.06-.14.46-.21,0-.07Z"/><path class="cls-1" d="M232.79,32.8l.12.26,0,0,0-.09-.53.25,0,.09,0,0-.08-.17.57-.27,0-.09Z"/><path class="cls-1" d="M234.34,32.16l.11.31,0,0,0-.1-.64.22,0,.1-.06,0-.07-.21.69-.24,0-.11Z"/><path class="cls-1" d="M238.33,30.94l.09.44-.07,0,0-.14-.9.19,0,.14-.08,0-.06-.29,1-.21,0-.15Z"/><path class="cls-1" d="M245.11,30.31l0,.56H245v-.18l-1.27-.06v.18h-.11l0-.37,1.38.07v-.18Z"/><path class="cls-1" d="M233.81,41.16s-.1,0-.18,0-.1-.13-.07-.17l.43-.47s.09,0,.17.05.1.13.07.17Zm.33-.55s0,0,0,0h0s0,0-.05,0l-.42.47s0,0,0,0,0,0,.05,0Z"/><path class="cls-1" d="M235.22,39.62c-.05,0-.12,0-.2-.06s-.11-.15-.06-.2l.53-.54s.12,0,.2,0,.11.15.06.2Zm.44-.64s0,0,0-.06h0s0,0-.06,0l-.53.55s0,0,0,.06.05,0,.06,0Z"/><path class="cls-1" d="M236,38.84c-.06,0-.13,0-.23-.08s-.11-.18-.05-.23l.65-.58c.06-.06.14,0,.23.07s.11.19.05.24Zm.56-.69s0,0,0-.07h0s0,0-.07,0l-.65.59s0,0,0,.07,0,0,.07,0Z"/><path class="cls-1" d="M236.93,38c-.06.06-.14,0-.24-.08s-.12-.19-.06-.25l.7-.62c.06,0,.14,0,.24.08s.11.2.05.25Zm.59-.73s0,0,0-.08h0s-.05,0-.07,0l-.69.62s0,0,0,.07.06,0,.08,0Z"/><path class="cls-1" d="M231.44,43.84l.21.14,0,0-.07-.05-.3.44.07,0,0,0-.15-.1.32-.47-.07-.05Z"/><path class="cls-1" d="M231.87,43.2l.22.14,0,0-.07-.05-.29.44.07,0,0,0-.14-.09.32-.48-.07,0Z"/><path class="cls-1" d="M232.34,42.54l.23.17,0,0-.07-.06-.36.47.08.05,0,0-.15-.11.38-.51-.08-.06Z"/><path class="cls-1" d="M232.84,41.9l.22.18,0,0-.07,0-.37.45.08.06,0,0-.15-.12.4-.5-.08-.06Z"/><path class="cls-1" d="M233.41,41.11l.28.22,0,.05-.09-.07-.44.57.09.07,0,0-.18-.14.48-.62-.1-.07Z"/><path class="cls-1" d="M234.76,39.52l.3.29-.05,0-.1-.09-.58.61.1.09-.05.05-.2-.19.63-.66-.1-.1Z"/><path class="cls-1" d="M238.48,35.93l.36.43-.08.06-.11-.14-.88.72.12.14-.08.06-.23-.28.95-.78-.12-.15Z"/><path class="cls-1" d="M238.9,36.21c-.07,0-.14,0-.22-.12s-.08-.2,0-.24l.77-.47c.07,0,.14,0,.22.12s.08.21,0,.25Zm.69-.59s0,0,0-.07h0a.06.06,0,0,0-.07,0l-.77.46s0,0,0,.08.05.05.07,0Z"/><path class="cls-1" d="M239.94,35.61c-.06,0-.12,0-.19-.11s-.07-.17,0-.21l.68-.4c.06,0,.12,0,.19.1s.07.18,0,.21Zm.61-.52s0,0,0-.06h0s0,0-.06,0l-.68.4s0,0,0,.07,0,0,.06,0Z"/><path class="cls-1" d="M241.24,36.11c-.07,0-.16,0-.26-.1s-.13-.21-.06-.26l.77-.66c.06-.05.15,0,.25.1s.13.21.06.26Zm.65-.78s0,0,0-.08h0s-.06,0-.08,0l-.77.65s0,.05,0,.08.06,0,.09,0Z"/><path class="cls-1" d="M240.88,29.45c-.09,0-.13-.11-.1-.3s.08-.27.18-.26l1.09.15c.09,0,.13.11.1.3s-.08.27-.18.26ZM242,29.4s.05,0,.06-.07h0c0-.05,0-.08,0-.09l-1.09-.14s-.05,0-.06.07,0,.09,0,.1Z"/><path class="cls-1" d="M244.49,30c-.11,0-.15-.13-.11-.34s.11-.3.23-.28l1.31.24c.12,0,.15.13.12.34s-.12.31-.23.28Zm1.36,0s.06,0,.07-.09h0c0-.06,0-.1,0-.1l-1.31-.24s-.06,0-.07.08,0,.1,0,.11Z"/><path class="cls-1" d="M246.38,30.35c-.13,0-.16-.17-.11-.41s.16-.33.29-.3l1.49.37c.12,0,.16.16.1.4s-.15.34-.28.31Zm1.55.12s.07,0,.09-.09h0c0-.07,0-.12,0-.13l-1.49-.36s-.07,0-.08.09,0,.11,0,.12Z"/><path class="cls-1" d="M234.69,28.66v.45h-.08V29h-.92v.15h-.07v-.3h1v-.15Z"/><path class="cls-1" d="M236,28.66v.45H236V29H235v.14H235v-.3h1v-.15Z"/><path class="cls-1" d="M237.46,28.69l0,.5h-.09V29l-1-.05v.16h-.08l0-.33,1.1.06v-.17Z"/><path class="cls-1" d="M238.87,28.78l0,.5h-.08v-.16l-1-.08v.16h-.09l0-.33,1.1.09,0-.17Z"/><path class="cls-1" d="M240.56,28.83l0,.62h-.1v-.2l-1.26-.07v.19h-.1l0-.41,1.36.08v-.21Z"/><path class="cls-1" d="M244.18,29.22l-.12.72-.12,0,0-.23-1.45-.25,0,.23-.12,0,.08-.47,1.57.26,0-.24Z"/><path class="cls-1" d="M239.83,28.58c-.12,0-.16-.13-.14-.36s.09-.33.21-.32l1.34.14c.11,0,.16.13.14.36s-.1.34-.21.33Zm1.36-.09s.06,0,.07-.1h0c0-.07,0-.11,0-.11l-1.34-.14s-.06,0-.06.1,0,.1,0,.11Z"/><path class="cls-1" d="M244.26,29.1c-.14,0-.19-.16-.16-.42s.13-.37.27-.35l1.62.24q.21,0,.15.42c0,.26-.13.38-.27.35Zm1.65,0c.05,0,.07,0,.09-.11h0c0-.08,0-.12-.05-.13l-1.62-.24s-.07,0-.08.1,0,.12.05.13Z"/><path class="cls-1" d="M246.57,29.49c-.16,0-.2-.2-.14-.49s.17-.42.33-.38l1.83.39c.16,0,.21.2.15.49s-.18.42-.34.39Zm1.9.09c.05,0,.09,0,.1-.11h0c0-.08,0-.13,0-.14l-1.83-.4c-.06,0-.09,0-.11.11s0,.14,0,.15Z"/><path class="cls-1" d="M232.24,27.83l0,.55h-.1v-.17l-1.12,0v.18H231v-.37l1.21,0v-.19Z"/><path class="cls-1" d="M233.89,27.79v.55h-.09v-.17l-1.12,0v.18h-.09l0-.37,1.22,0v-.19Z"/><path class="cls-1" d="M235.62,27.77l0,.61h-.1v-.2l-1.25,0v.2h-.1v-.41l1.35,0v-.21Z"/><path class="cls-1" d="M237.35,27.84l0,.61h-.11v-.2L236,28.18v.2h-.11l0-.4,1.35.07v-.21Z"/><path class="cls-1" d="M239.41,27.84l0,.75h-.13v-.24l-1.54-.05v.24h-.13l0-.5,1.66.05v-.25Z"/><path class="cls-1" d="M243.85,28.19l-.12.88-.15,0,0-.29-1.78-.24,0,.28-.15,0,.08-.58,1.93.27,0-.3Z"/><path class="cls-1" d="M232.66,26.78q-.12,0-.12-.24t.12-.24h.94q.12,0,.12.24t-.12.24Zm.94-.16s0,0,0-.08h0s0-.07,0-.07h-.94s0,0,0,.07,0,.07,0,.07Z"/><path class="cls-1" d="M235.77,26.82c-.1,0-.15-.1-.14-.28s.06-.27.16-.26l1.14,0c.1,0,.14.1.13.28s-.06.27-.16.26Zm1.14-.14s.05,0,.05-.07h0c0-.05,0-.08,0-.08l-1.14-.05s-.05,0-.05.07,0,.09.05.09Z"/><path class="cls-1" d="M237.4,26.92c-.11,0-.16-.12-.13-.33s.09-.3.2-.29l1.3.15c.11,0,.15.12.13.33s-.09.3-.2.29Zm1.32-.07s.06,0,.07-.09h0c0-.06,0-.09,0-.1l-1.29-.14s-.06,0-.07.09,0,.09,0,.1Z"/><path class="cls-1" d="M227.34,26.81l0,.37h-.06l0-.12-.77.1v.13h-.06l0-.26.84-.11,0-.13Z"/><path class="cls-1" d="M228.48,26.66l.05.38h-.06l0-.13-.77.11v.12h-.06l0-.25.84-.12,0-.12Z"/><path class="cls-1" d="M229.68,26.52l0,.43h-.08v-.14l-.86.07V27h-.08l0-.29.94-.07v-.14Z"/><path class="cls-1" d="M230.89,26.44l0,.43h-.07v-.14l-.87.05v.13h-.07l0-.28.94-.05v-.15Z"/><path class="cls-1" d="M232.32,26.3l0,.52h-.09v-.16l-1.07.07v.17h-.09l0-.35,1.15-.08V26.3Z"/><path class="cls-1" d="M235.42,26.22l0,.61h-.11v-.2l-1.25,0v.2h-.1v-.41l1.36,0v-.2Z"/><path class="cls-1" d="M240.67,26.4c.09,0,.13.11.11.29s-.08.27-.18.26l-1.06-.13c-.09,0-.13-.11-.1-.29s.08-.27.17-.26Zm-1.09.06s0,0-.05.08,0,.08,0,.09l1.07.13s0,0,.05-.08h0q0-.08,0-.09Z"/><path class="cls-1" d="M244.42,26.77c.12,0,.16.11.15.32s-.08.3-.19.29l-1.3-.09c-.11,0-.16-.12-.14-.32s.08-.31.19-.3Zm-1.31.11s-.05,0-.06.09,0,.1,0,.1l1.29.1s.06,0,.07-.09h0c0-.06,0-.1-.05-.1Z"/><path class="cls-1" d="M246.48,26.8c.13,0,.2.12.19.36s-.07.35-.2.35l-1.49,0c-.12,0-.19-.12-.18-.36s.07-.35.19-.35ZM245,27s-.06,0-.06.11,0,.1.06.1l1.49,0s.06,0,.06-.1h0c0-.07,0-.11-.06-.11Z"/><path class="cls-1" d="M233.52,25.48l0-.14-.93-.25.07-.28.07,0,0,.14.86.22,0-.13.08,0-.11.42Z"/><path class="cls-1" d="M234.79,25.81l0-.15-.93-.24.07-.28.07,0,0,.13.86.23,0-.14.08,0-.12.43Z"/><path class="cls-1" d="M236.12,26.13l0-.16-1.06-.21.07-.32.08,0,0,.15,1,.2,0-.15h.08l-.1.48Z"/><path class="cls-1" d="M237.47,26.4l0-.17-1.06-.18.06-.32h.08l0,.16,1,.17,0-.15h.08l-.08.48Z"/><path class="cls-1" d="M239.05,26.76l0-.2-1.29-.26.07-.39.1,0,0,.19,1.19.24,0-.19.1,0-.12.59Z"/><path class="cls-1" d="M242.53,27.29l0-.24L241,26.91l.05-.46h.11l0,.22,1.43.13,0-.22h.11l-.06.7Z"/><path class="cls-1" d="M241.54,27.69q-.15,0-.12-.3c0-.2.08-.29.18-.28l1.13.12c.1,0,.14.11.12.31s-.08.28-.18.27Zm1.15-.08s.05,0,.06-.08h0c0-.06,0-.09,0-.1l-1.13-.12s-.06,0-.06.09,0,.09,0,.09Z"/><path class="cls-1" d="M245.29,28.13c-.12,0-.16-.14-.13-.36s.11-.31.23-.3l1.37.21c.12,0,.16.14.13.36s-.11.32-.23.3Zm1.41,0s.06,0,.07-.09h0c0-.07,0-.1,0-.11l-1.37-.21s-.07,0-.08.09,0,.1.05.11Z"/><path class="cls-1" d="M247.26,28.46q-.21,0-.12-.42c.05-.24.14-.35.28-.32l1.55.34c.14,0,.18.16.12.41s-.14.36-.28.33Zm1.61.08s.07,0,.09-.1h0c0-.07,0-.12,0-.13L247.36,28s-.07,0-.09.09,0,.12,0,.13Z"/><path class="cls-1" d="M235.1,27.05v.47H235v-.15l-.95,0v.15H234v-.31l1,0v-.15Z"/><path class="cls-1" d="M236.5,27v.47h-.08v-.15l-1,0v.15h-.08v-.31l1,0V27Z"/><path class="cls-1" d="M238,27l0,.52h-.09v-.17l-1.06,0v.16h-.09v-.34l1.14,0V27Z"/><path class="cls-1" d="M239.43,27.06l0,.52h-.09V27.4l-1.06,0v.17h-.09l0-.34,1.15.06v-.18Z"/><path class="cls-1" d="M241.18,27.06l0,.64h-.1v-.21l-1.3,0v.2h-.1v-.42l1.41,0v-.21Z"/><path class="cls-1" d="M245,27.36l-.11.74-.12,0,0-.23-1.51-.21,0,.24-.13,0,.07-.49,1.64.22,0-.25Z"/><path class="cls-1" d="M242.69,34.14l.31.36-.06.06-.1-.12-.75.63.1.12-.06.05-.21-.24.81-.69-.1-.12Z"/><path class="cls-1" d="M241.23,34.39l.16.28,0,0-.05-.08-.56.32.05.09,0,0-.11-.18.6-.36,0-.09Z"/><path class="cls-1" d="M240.3,33.37l.08.31h0l0-.09-.62.17,0,.1h0l-.05-.2.67-.19,0-.1Z"/><path class="cls-1" d="M234.09,37s-.09,0-.14-.08-.06-.13,0-.16l.48-.3s.09,0,.14.08.06.13,0,.16Zm.42-.38a0,0,0,0,0,0-.05h0s0,0,0,0l-.47.31s0,0,0,0,0,0,0,0Z"/><path class="cls-1" d="M235.67,36s-.1,0-.16-.09,0-.16,0-.19l.59-.34c.05,0,.11,0,.16.1s.06.15,0,.18Zm.54-.44a0,0,0,0,0,0,0h0s0,0-.05,0l-.59.34s0,0,0,.06a0,0,0,0,0,.05,0Z"/><path class="cls-1" d="M236.53,35.52c-.06,0-.12,0-.17-.13s-.06-.18,0-.21l.7-.35c.06,0,.12,0,.17.12s.06.19,0,.22Zm.65-.47s0,0,0-.07h0s0,0-.05,0l-.71.35s0,0,0,.06,0,0,.05,0Z"/><path class="cls-1" d="M237.54,35c-.07,0-.13,0-.19-.13s-.06-.2,0-.23l.75-.37c.06,0,.12,0,.18.13s.06.19,0,.23Zm.68-.5s0,0,0-.07h0s0,0-.05,0l-.75.37s0,0,0,.07,0,0,.05,0Z"/><path class="cls-1" d="M231.41,38.72l.15.18,0,0-.05-.05-.35.3,0,.06,0,0-.09-.12.38-.32-.05-.06Z"/><path class="cls-1" d="M231.94,38.28l.15.17,0,0-.05-.06-.36.31,0,.05,0,0-.1-.12.39-.33-.05-.06Z"/><path class="cls-1" d="M232.5,37.82l.16.2,0,0-.05-.07-.41.32.05.06,0,0-.1-.13.45-.35-.05-.07Z"/><path class="cls-1" d="M233.08,37.39l.15.2,0,0,0-.07-.42.31,0,.06,0,0-.1-.14.46-.33,0-.07Z"/><path class="cls-1" d="M233.76,36.85l.19.25,0,0-.06-.08-.52.39.06.08,0,0-.13-.17.56-.41-.06-.09Z"/><path class="cls-1" d="M235.3,35.8l.19.32-.05,0-.06-.1-.65.39.06.1,0,0-.13-.21.7-.42-.06-.1Z"/><path class="cls-1" d="M239.37,33.6l.2.46-.08,0-.07-.14-.92.4.06.15-.08,0-.13-.31,1-.44-.07-.15Z"/><path class="cls-1" d="M236.21,35.05c-.05,0-.09,0-.14-.11s0-.15,0-.18l.55-.26c.05,0,.1,0,.14.11s0,.15,0,.17Zm.51-.37s0,0,0,0h0s0,0,0,0l-.56.26s0,0,0,.06,0,0,0,0Z"/><path class="cls-1" d="M238.05,34.19c-.05,0-.11,0-.15-.13s0-.18,0-.2l.68-.29c.06,0,.11,0,.16.12s0,.18,0,.21Zm.64-.41s0,0,0-.06h0a.05.05,0,0,0,0,0L238,34a0,0,0,0,0,0,.06s0,0,0,0Z"/><path class="cls-1" d="M239.05,33.78q-.11,0-.18-.15c0-.13,0-.21,0-.23l.81-.28c.07,0,.12,0,.17.15s0,.21,0,.23Zm.76-.41s0,0,0-.07h0s0-.06-.06,0l-.8.28s0,0,0,.07,0,.06.05,0Z"/><path class="cls-1" d="M240.2,33.37c-.07,0-.14,0-.18-.17s0-.22,0-.24l.85-.3c.08,0,.14,0,.18.16s0,.22,0,.25Zm.8-.45s0,0,0-.07h0s0-.06-.06-.05l-.85.3s0,0,0,.08,0,0,.06,0Z"/><path class="cls-1" d="M242.78,32.54c-.09,0-.15,0-.19-.2s0-.25.07-.28l1-.24c.09,0,.15.05.19.2s0,.26-.07.28Zm1-.41s0,0,0-.08h0s0-.07,0-.06l-1,.24s0,0,0,.08,0,.07.07.07Z"/><path class="cls-1" d="M244.11,32.26c-.11,0-.18-.06-.22-.25s0-.3.09-.33l1.22-.26c.1,0,.17.06.22.25s0,.3-.1.33Zm1.17-.46s0,0,0-.1h0c0-.06,0-.09-.07-.08l-1.21.27s-.05,0,0,.09,0,.09.07.08Z"/><path class="cls-1" d="M232.52,37.05l.1.15,0,0,0,0-.31.2,0,.05,0,0-.06-.1.33-.22,0,0Z"/><path class="cls-1" d="M233.09,36.57l.14.21,0,0,0-.06-.43.28,0,.06,0,0-.09-.14.46-.31,0-.07Z"/><path class="cls-1" d="M233.72,36.16l.14.21,0,0,0-.06-.43.28,0,.06,0,0-.09-.14.46-.31,0-.07Z"/><path class="cls-1" d="M234.39,35.74l.14.24,0,0-.05-.07-.49.28,0,.08,0,0-.09-.16.53-.31,0-.08Z"/><path class="cls-1" d="M235.07,35.35l.14.24-.05,0,0-.08-.5.27,0,.08,0,0-.08-.16.54-.3-.05-.08Z"/><path class="cls-1" d="M235.87,34.86l.18.29-.06,0-.05-.09-.61.35.06.09,0,0-.12-.2.66-.37-.06-.1Z"/><path class="cls-1" d="M237.68,33.93l.16.37-.06,0-.05-.12-.75.33.05.12-.06,0-.11-.25.81-.36,0-.12Z"/><path class="cls-1" d="M242.36,32.09l.16.52-.09,0-.05-.17-1.06.32.05.17-.08,0-.11-.34,1.15-.35-.06-.17Z"/><path class="cls-1" d="M236.43,31s-.07,0-.09-.11,0-.13,0-.13l.48-.09s.07,0,.08.11,0,.12,0,.13Zm.46-.17s0,0,0,0h0s0,0,0,0l-.47.09s0,0,0,0,0,0,0,0Z"/><path class="cls-1" d="M238,30.67c-.05,0-.08,0-.1-.13s0-.14.06-.14l.58-.08q.08,0,.09.12c0,.1,0,.14-.06.15Zm.56-.17s0,0,0-.05h0s0,0,0,0l-.58.08a.06.06,0,0,0,0,.05s0,0,0,0Z"/><path class="cls-1" d="M238.85,30.52c-.06,0-.09,0-.1-.15s0-.16.07-.17l.67-.05c.06,0,.09.05.1.16s0,.16-.07.16Zm.66-.16s0,0,0-.05h0s0,0,0,0l-.67.06s0,0,0,.05,0,0,0,0Z"/><path class="cls-1" d="M240.85,30.37c-.06,0-.1-.05-.11-.18s0-.18.09-.18l.76-.06c.07,0,.11.05.11.17s0,.19-.08.19Zm.76-.19s0,0,0-.05h0s0-.06,0-.06l-.76.06s0,0,0,.06,0,0,0,0Z"/><path class="cls-1" d="M233.22,31.71l.05.14h0l0-.05-.28.09,0,.05h0l0-.09.3-.09,0-.05Z"/><path class="cls-1" d="M233.75,31.47l.07.18h0l0-.06-.38.13,0,.06h0l0-.12.41-.14,0-.06Z"/><path class="cls-1" d="M234.31,31.28l.07.19h0l0-.06-.38.13,0,.06h0l0-.13.41-.13,0-.07Z"/><path class="cls-1" d="M234.91,31.1l.05.21h0l0-.07-.43.12,0,.07h0l0-.14.47-.13,0-.07Z"/><path class="cls-1" d="M235.5,31l.06.21h0l0-.07-.43.1,0,.07h0l0-.14.47-.11,0-.08Z"/><path class="cls-1" d="M236.21,30.74l.07.26h0l0-.09-.53.14,0,.09h0l0-.17.57-.15,0-.09Z"/><path class="cls-1" d="M237.76,30.4l.05.32h-.05l0-.1-.63.1v.1h-.05l0-.21.69-.1,0-.11Z"/><path class="cls-1" d="M240.61,30v.4h-.07v-.13l-.8,0v.12h-.07v-.26l.86,0V30Z"/><path class="cls-1" d="M242.89,29.82v.47h-.08v-.15h-1v.15h-.07V30h1v-.15Z"/><path class="cls-1" d="M244.1,30l0,.43H244v-.14l-.89-.07v.14H243l0-.29,1,.09v-.15Z"/><path class="cls-1" d="M235.74,30.39s-.06,0-.07-.1,0-.1,0-.11l.41-.07s.06,0,.07.09,0,.1,0,.11Zm.39-.15s0,0,0,0h0s0,0,0,0l-.4.07s0,0,0,0,0,0,0,0Z"/><path class="cls-1" d="M237.08,30.15s-.07,0-.08-.11,0-.12.05-.12l.49-.07s.07,0,.08.11,0,.12-.05.12Zm.48-.15s0,0,0,0h0s0,0,0,0l-.49.07s0,0,0,0a0,0,0,0,0,0,0Z"/><path class="cls-1" d="M237.8,30c-.05,0-.07,0-.08-.13s0-.13.06-.14l.57,0c.05,0,.08,0,.09.13s0,.14-.07.14Zm.57-.13a.06.06,0,0,0,0-.05h0s0,0,0,0l-.57.05s0,0,0,0,0,0,0,0Z"/><path class="cls-1" d="M239.51,29.89s-.09,0-.09-.15,0-.15.07-.16l.65,0c.06,0,.09,0,.1.15s0,.16-.08.16Zm.65-.15a.06.06,0,0,0,0,0h0s0-.05,0-.05l-.65.05s0,0,0,0,0,.05,0,0Z"/><path class="cls-1" d="M233,31l0,.11h0v0l-.24.08,0,0h0l0-.07.26-.09,0,0Z"/><path class="cls-1" d="M233.46,30.83l.06.16h0l0,0-.32.11,0,.05h0l0-.11.36-.11,0-.05Z"/><path class="cls-1" d="M233.94,30.67l.05.16h0l0-.05-.32.11V31h0l0-.1.35-.12,0-.05Z"/><path class="cls-1" d="M234.45,30.52l0,.17h0v-.05l-.37.09,0,.06h0l0-.12.4-.11,0-.06Z"/><path class="cls-1" d="M235,30.38l0,.18h0l0-.06-.37.09,0,.06h0l0-.12.4-.1,0-.06Z"/><path class="cls-1" d="M235.56,30.21l.06.22h0l0-.07-.45.11,0,.08h0l0-.15.49-.13,0-.07Z"/><path class="cls-1" d="M236.88,29.92l0,.27h0l0-.08-.54.08,0,.09h-.05l0-.17.59-.09v-.09Z"/><path class="cls-1" d="M239.3,29.57v.34h-.06V29.8l-.68,0v.11h-.06v-.22l.74,0v-.12Z"/><path class="cls-1" d="M241.25,29.43v.4h-.07V29.7h-.81v.13h-.07v-.27h.88v-.13Z"/><path class="cls-1" d="M242.27,29.53l0,.37h-.06v-.12l-.75-.07v.12h-.07l0-.24.81.07v-.12Z"/><path class="cls-1" d="M238.06,35.18s-.09,0-.13-.09,0-.14,0-.16l.48-.25s.09,0,.13.09,0,.14,0,.16Zm.44-.34s0,0,0,0h0s0,0,0,0L238,35s0,0,0,0,0,0,0,0Z"/><path class="cls-1" d="M239.66,34.37s-.1,0-.14-.11,0-.16,0-.18l.6-.28c.05,0,.1,0,.14.11s0,.15,0,.18Zm.56-.38s0,0,0-.06h0s0,0,0,0l-.6.28s0,0,0,0,0,0,.05,0Z"/><path class="cls-1" d="M240.53,34c-.06,0-.11,0-.16-.13s0-.18,0-.21l.7-.27c.06,0,.12,0,.16.13s0,.18,0,.21Zm.66-.39s0,0,0-.06h0s0-.05,0,0l-.71.27s0,0,0,.06,0,0,0,0Z"/><path class="cls-1" d="M241.54,33.58c-.07,0-.12,0-.17-.14s0-.19,0-.22l.75-.29c.06,0,.12,0,.16.14s0,.19,0,.22Zm.7-.42s0,0,0-.06h0s0-.05-.05-.05l-.75.3s0,0,0,.06,0,.05.05,0Z"/><path class="cls-1" d="M243.81,32.76c-.09,0-.16,0-.2-.22s0-.26.06-.28l1.05-.3q.14,0,.21.21c0,.17,0,.27-.07.29Zm1-.47s0,0,0-.09h0q0-.08-.06-.06l-1.05.29s0,0,0,.09,0,.07.06.06Z"/><path class="cls-1" d="M234.84,37.06l.1.13,0,0,0-.05-.27.19,0,0h0l-.06-.09.29-.2,0,0Z"/><path class="cls-1" d="M235.34,36.62l.12.18,0,0,0-.06L235,37l0,.06,0,0L235,37l.4-.28,0-.06Z"/><path class="cls-1" d="M235.88,36.24l.13.18,0,0,0-.06-.37.26,0,.06,0,0-.09-.12.4-.28,0-.06Z"/><path class="cls-1" d="M236.46,35.84l.13.21,0,0-.05-.06-.42.27,0,.06,0,0-.08-.13.46-.29,0-.07Z"/><path class="cls-1" d="M237.06,35.48l.12.21,0,0,0-.07-.44.26,0,.07,0,0-.09-.14.47-.28,0-.07Z"/><path class="cls-1" d="M237.75,35l.16.26,0,0-.05-.09-.53.33.05.08,0,0-.11-.17.57-.35,0-.09Z"/><path class="cls-1" d="M239.32,34.15l.16.32-.06,0,0-.1-.65.31.05.1-.05,0-.11-.21.71-.34,0-.11Z"/><path class="cls-1" d="M243.42,32.39l.15.45-.08,0-.05-.15-.92.32,0,.14-.08,0-.1-.3,1-.34,0-.15Z"/><path class="cls-1" d="M235.41,42.27s-.09,0-.16,0-.1-.12-.07-.16l.37-.47c0-.05.09,0,.16,0s.1.12.07.17Zm.29-.54s0,0,0,0h0s0,0-.05,0l-.37.47s0,0,0,0,0,0,.05,0Z"/><path class="cls-1" d="M236.64,40.71s-.1,0-.18,0-.11-.15-.06-.19l.47-.55s.1,0,.18,0,.1.15.06.19Zm.39-.63s0,0,0-.06h0s0,0-.06,0l-.47.55s0,0,0,.06,0,0,.06,0Z"/><path class="cls-1" d="M237.33,39.93c-.05,0-.12,0-.21-.07s-.11-.17-.06-.22l.58-.59c.05-.06.12,0,.21.06s.11.17.06.23Zm.48-.7s0,0,0-.06h0s-.05,0-.07,0l-.57.59s0,0,0,.07.05,0,.07,0Z"/><path class="cls-1" d="M238.15,39.07c-.05,0-.13,0-.22-.07s-.12-.18-.06-.24l.61-.63c.05-.06.12,0,.22.07s.11.18.06.24Zm.51-.74s0,0,0-.07h0s-.06,0-.07,0l-.61.63s0,0,0,.07.05,0,.07,0Z"/><path class="cls-1" d="M240,37.21c-.07.07-.17,0-.29-.13s-.13-.26-.05-.32l.9-.77c.08-.07.18,0,.29.13s.14.26.06.32Zm.79-.93s0-.05,0-.1h0s-.06,0-.09,0l-.9.76s0,.06,0,.11.07,0,.09,0Z"/><path class="cls-1" d="M233,45.64l.15.09,0,0,0,0-.18.31.05,0,0,0-.1-.06.2-.35,0,0Z"/><path class="cls-1" d="M233.34,45l.2.13,0,0-.07,0-.25.43.06,0,0,0-.13-.09.28-.47-.07,0Z"/><path class="cls-1" d="M233.72,44.33l.2.13,0,0-.07,0-.25.43.06,0,0,0-.13-.08.27-.47-.06,0Z"/><path class="cls-1" d="M234.12,43.66l.22.16,0,0-.07,0-.31.47.07,0,0,0-.14-.11.33-.51-.07,0Z"/><path class="cls-1" d="M234.55,43l.21.17,0,0-.07,0-.32.46.07,0,0,0-.14-.11.35-.5-.07,0Z"/><path class="cls-1" d="M235.05,42.24l.26.2,0,0-.09-.06-.38.57.08.06,0,.05-.17-.13.41-.62-.09-.06Z"/><path class="cls-1" d="M236.22,40.64l.28.27,0,.05-.09-.09-.51.62.09.08,0,0-.19-.17.56-.67-.1-.09Z"/><path class="cls-1" d="M239.5,37l.33.4-.06.06-.11-.13-.78.73.11.13-.06.07L238.7,38l.84-.8-.11-.13Z"/><path class="cls-1" d="M234.63,33.56s-.08,0-.12-.11,0-.14,0-.16l.53-.2c.05,0,.09,0,.12.11s0,.14,0,.16Zm.5-.3s0,0,0,0h0a.05.05,0,0,0,0,0l-.54.21s0,0,0,0,0,0,0,0Z"/><path class="cls-1" d="M236.41,32.9c-.06,0-.11,0-.14-.13s0-.16,0-.18l.66-.22c.06,0,.1,0,.14.13s0,.16,0,.18Zm.62-.33s0,0,0,0h0s0,0,0,0l-.66.22s0,0,0,0,0,0,0,0Z"/><path class="cls-1" d="M237.36,32.6c-.07,0-.12,0-.15-.16s0-.19,0-.21L238,32q.1,0,.15.15c0,.13,0,.2-.05.21Zm.74-.33s0,0,0-.07h0s0-.05,0,0l-.77.2s0,0,0,.06,0,.06.05,0Z"/><path class="cls-1" d="M238.46,32.3c-.07,0-.12,0-.16-.17s0-.2.06-.22l.81-.22c.08,0,.13,0,.16.17s0,.2-.05.22Zm.78-.36s0,0,0-.06h0s0-.06,0-.05l-.82.21s0,0,0,.07,0,.06,0,0Z"/><path class="cls-1" d="M240.92,31.72c-.09,0-.14,0-.17-.21s0-.23.09-.24l.95-.16c.09,0,.14.06.16.21s0,.23-.08.25Zm.92-.31s0,0,0-.08h0s0-.06-.05-.06l-.95.16s0,0,0,.07,0,.07,0,.06Z"/><path class="cls-1" d="M242.25,31.55c-.1,0-.16-.07-.19-.26s0-.28.11-.29l1.15-.16c.1,0,.16.07.19.25s0,.29-.11.3Zm1.12-.35s0,0,0-.09h0c0-.06,0-.08-.06-.08l-1.15.16s0,0,0,.09,0,.08.06.08Z"/><path class="cls-1" d="M231.05,35.15l.08.15,0,0,0,0-.3.16,0,0,0,0-.06-.1.33-.18,0,0Z"/><path class="cls-1" d="M231.62,34.75l.11.2,0,0,0-.06-.42.23,0,.06,0,0-.07-.13.45-.25,0-.07Z"/><path class="cls-1" d="M232.23,34.42l.12.2,0,0,0-.07-.41.23,0,.07,0,0-.08-.14.46-.25,0-.07Z"/><path class="cls-1" d="M232.88,34.07l.12.24,0,0,0-.08-.48.23,0,.08h0l-.07-.15.51-.25,0-.08Z"/><path class="cls-1" d="M233.55,33.76l.11.24,0,0,0-.08-.48.22,0,.07,0,0-.07-.16.53-.23,0-.08Z"/><path class="cls-1" d="M234.33,33.36l.14.29-.05,0,0-.1-.59.28,0,.09-.05,0-.09-.19.64-.31-.05-.09Z"/><path class="cls-1" d="M236.08,32.64l.12.35-.06,0,0-.11-.72.25,0,.11-.06,0-.08-.23.78-.27,0-.12Z"/><path class="cls-1" d="M240.56,31.27l.11.5h-.08l0-.16-1,.22,0,.16-.08,0-.07-.33,1.09-.23,0-.17Z"/><path class="cls-1" d="M244.87,30.62l0,.57h-.09l0-.19-1.16.11v.19h-.09l0-.38,1.26-.12,0-.19Z"/><path class="cls-1" d="M246.25,30.68l0,.53h-.09V31L245.06,31v.17H245l0-.35,1.17.05v-.18Z"/><path class="cls-1" d="M243.48,31.33l.06.47h-.08l0-.15-1,.13,0,.15h-.08l0-.32,1-.13,0-.16Z"/><path class="cls-1" d="M243.82,31.6c-.07,0-.12-.06-.13-.2s0-.21.09-.22l.88-.09c.07,0,.12.06.13.2s0,.21-.09.22Zm.86-.23s0,0,0-.07h0s0-.06,0-.06l-.88.09s0,0,0,.07,0,.06.05.06Z"/><path class="cls-1" d="M245.24,31.37c-.06,0-.09-.06-.09-.16s0-.15.1-.14l.75,0q.1,0,.09.15c0,.1,0,.15-.1.15Zm.76-.08s0,0,0-.05h0s0,0,0,0l-.75,0s0,0,0,0,0,0,0,0Z"/><path class="cls-1" d="M235.39,34.16s-.07,0-.1-.09,0-.12,0-.13l.44-.2s.07,0,.1.09,0,.12,0,.13Zm.4-.27s0,0,0,0h0s0,0,0,0l-.43.19s0,0,0,.05,0,0,0,0Z"/><path class="cls-1" d="M236.84,33.56s-.08,0-.11-.09,0-.12,0-.14l.48-.2c.05,0,.08,0,.11.09s0,.13,0,.15Zm.45-.27s0,0,0,0h0l0,0-.49.2s0,0,0,0,0,0,0,0Z"/><path class="cls-1" d="M237.54,33.3s-.09,0-.12-.11,0-.14,0-.16l.58-.19c.05,0,.09,0,.12.11s0,.15,0,.16Zm.55-.28a0,0,0,0,0,0-.05h0s0,0,0,0l-.57.19s0,0,0,0,0,0,0,0Z"/><path class="cls-1" d="M238.36,33.05q-.08,0-.12-.12c0-.1,0-.15,0-.17l.61-.2q.08,0,.12.12c0,.09,0,.15,0,.17Zm.58-.3a0,0,0,0,0,0,0h0s0,0,0,0l-.61.2s0,0,0,0,0,0,0,0Z"/><path class="cls-1" d="M240.22,32.45c-.07,0-.11,0-.14-.14s0-.18,0-.19l.7-.2c.06,0,.11,0,.14.14s0,.17,0,.19Zm.67-.32s0,0,0-.05h0s0,0,0,0l-.71.2s0,0,0,.06,0,.05,0,0Z"/><path class="cls-1" d="M241.21,32.24c-.08,0-.14-.05-.17-.2s0-.24.08-.25l.95-.19c.08,0,.14,0,.17.2s0,.24-.08.25Zm.92-.34s0,0,0-.08h0c0-.05,0-.07-.05-.06l-.95.19s0,0,0,.07,0,.07.05.06Z"/><path class="cls-1" d="M232.51,35.57l.08.11h0l0,0-.21.16,0,0v0l-.06-.07.23-.18,0,0Z"/><path class="cls-1" d="M233.18,35.06l.1.15h0l0,0-.3.19,0,.05h0l-.06-.1.33-.21,0,0Z"/><path class="cls-1" d="M233.63,34.82l.08.16,0,0,0,0-.32.16,0,0h0l-.05-.1.35-.18,0,0Z"/><path class="cls-1" d="M234.09,34.56l.09.18h0l0,0-.35.18,0,.06,0,0-.07-.12.39-.2,0-.06Z"/><path class="cls-1" d="M234.56,34.32l.09.17h0l0,0-.35.19,0,0,0,0-.06-.12.38-.2,0-.06Z"/><path class="cls-1" d="M235.13,34l.11.22,0,0,0-.07-.45.21,0,.07,0,0-.07-.14.48-.24,0-.07Z"/><path class="cls-1" d="M236.58,33.34l.12.3,0,0,0-.09-.61.25,0,.1,0,0-.08-.2.66-.28,0-.1Z"/><path class="cls-1" d="M239.91,32.17l.1.37H240l0-.11-.75.21,0,.12h-.06l-.07-.24.81-.23,0-.12Z"/><path class="cls-1" d="M205.32,31.21c.13.13.06.32-.2.58s-.45.32-.57.19l-1.43-1.45c-.12-.12-.06-.31.2-.57s.45-.32.58-.19ZM203.62,30s-.09,0-.17.06h0c-.08.08-.1.13-.06.17l1.43,1.45s.1,0,.17-.05.1-.14.06-.18Z"/><path class="cls-1" d="M204.3,32.5c.14.1.11.28-.08.54s-.36.34-.5.23l-1.58-1.19q-.19-.15.09-.54c.2-.26.36-.33.5-.23Zm-1.78-.92s-.09,0-.15.07h0c-.06.08-.07.13,0,.16L203.92,33c.05,0,.1,0,.16-.06s.06-.14,0-.17Z"/><path class="cls-1" d="M203.61,33.73c.15.05.17.23.06.53s-.23.41-.38.36l-1.7-.61c-.15-.06-.17-.23-.06-.53s.23-.42.38-.37Zm-1.81-.3c-.05,0-.09,0-.12.1h0c0,.08,0,.14,0,.15l1.7.62s.09,0,.12-.11,0-.14,0-.16Z"/><path class="cls-1" d="M203.05,36.48c.14,0,.22.14.23.43s-.05.43-.19.44l-1.65.07q-.23,0-.24-.42c0-.29.05-.44.2-.44Zm-1.64.38s-.07,0-.06.13h0c0,.09,0,.13.07.13l1.65-.07c.05,0,.07,0,.07-.14s0-.13-.08-.12Z"/><path class="cls-1" d="M208.88,44c0,.09-.11.11-.29.07s-.25-.1-.23-.19l.23-1c0-.09.12-.11.29-.07s.25.1.23.19Zm.05-1s0-.05-.07-.06h0c-.05,0-.08,0-.09,0l-.23,1s0,0,.07.06.09,0,.09,0Z"/><path class="cls-1" d="M209.84,44.1c0,.08-.1.11-.26.09s-.24-.06-.23-.14l.09-.94c0-.08.09-.12.26-.1s.24.06.23.15Zm-.08-1s0,0-.07,0h0c-.05,0-.08,0-.08,0l-.09.94s0,0,.07,0,.07,0,.08,0Z"/><path class="cls-1" d="M210.82,44.14q0,.12-.24.12c-.17,0-.25,0-.25-.12v-1c0-.08.08-.12.25-.12s.25,0,.25.13Zm-.17-.94s0,0-.07,0h0c-.05,0-.08,0-.08,0v1s0,0,.08,0,.07,0,.07,0Z"/><path class="cls-1" d="M203.2,37.85c.14,0,.24.1.29.39s0,.43-.13.46l-1.62.31c-.14,0-.24-.1-.29-.38s0-.44.13-.47Zm-1.57.61s-.06,0,0,.14h0c0,.09,0,.12.09.12l1.62-.31s.06-.06,0-.14,0-.13-.1-.12Z"/><path class="cls-1" d="M205,41.07c.07-.09.2-.06.38.1s.22.28.14.37l-.89,1c-.08.09-.21.05-.38-.1s-.23-.28-.15-.37Zm-.72,1.17s0,.06,0,.11h0s.09.06.11,0l.9-1s0-.06,0-.11-.1-.06-.12,0Z"/><path class="cls-1" d="M205.88,41.8c.05-.09.16-.09.35,0s.25.19.21.28l-.55,1.06c0,.09-.16.09-.34,0s-.26-.19-.21-.28ZM205.53,43s0,.06.06.08h0c.06,0,.09,0,.11,0l.54-1.06s0-.06-.06-.09-.09,0-.11,0Z"/><path class="cls-1" d="M206.71,30.32l-.86.7-.12-.15.28-.22-1.43-1.75-.28.23-.12-.15.57-.46,1.55,1.89.29-.24Z"/><path class="cls-1" d="M203.38,35.08l-.15.9-.16,0,.05-.29-1.84-.31-.05.29-.15,0,.1-.59,2,.33.05-.3Z"/><path class="cls-1" d="M203.75,39.07l.34.76-.13.06-.11-.25-1.55.7.12.25-.13.06-.23-.51,1.67-.76-.11-.25Z"/><path class="cls-1" d="M204.34,40.13l.44.61-.1.07-.14-.2-1.25.91.14.2-.1.07-.29-.4,1.34-1-.15-.21Z"/><path class="cls-1" d="M206.76,42.14l.67.23,0,.09-.22-.07-.39,1.11.22.08,0,.09-.45-.15.42-1.21-.22-.08Z"/><path class="cls-1" d="M207.72,42.44l.6.21,0,.08-.19-.06-.37,1.06.19.07,0,.09-.4-.14.4-1.15-.2-.07Z"/><path class="cls-1" d="M211.18,43.17l.56-.05v.08l-.17,0,.09,1,.17,0v.08l-.36,0-.1-1.07-.19,0Z"/><path class="cls-1" d="M207.63,29.26c.09.16,0,.33-.34.51s-.51.19-.61,0L205.62,28c-.09-.16,0-.33.34-.52s.52-.19.61,0Zm-1.39-1.66c0-.05-.09-.05-.19,0h0c-.09.05-.13.1-.1.16L207,29.61c0,.05.1.05.19,0s.13-.11.1-.16Z"/><path class="cls-1" d="M209.08,28.8l-1.06.45-.08-.18.34-.14-.92-2.16-.34.14-.08-.18.7-.3,1,2.34.36-.15Z"/><path class="cls-1" d="M211.8,28l-1.35.35-.06-.21.44-.11-.66-2.53-.44.11,0-.21.9-.23.71,2.74.46-.12Z"/><path class="cls-1" d="M210.22,28.11c.06.19-.11.35-.5.46s-.6.07-.66-.13l-.65-2.26c-.06-.19.11-.35.49-.46s.61-.07.67.13ZM209.16,26c0-.06-.08-.07-.2,0h0c-.12,0-.16.08-.15.15l.66,2.25c0,.07.08.08.2.05s.16-.08.15-.15Z"/><path class="cls-1" d="M213.4,27.71l-1.6.33,0-.22.51-.11-.54-2.65-.52.1,0-.22,1.06-.21.58,2.87.54-.11Z"/><path class="cls-1" d="M212.25,40.91c.28.88,1.21,1.75,1.09,2.63a9.43,9.43,0,0,0-1.24-.21,5.79,5.79,0,0,1,.4,1.17l.92.11a35.27,35.27,0,0,1,6.94,2C217.73,45.23,214.43,43.7,212.25,40.91Z"/><path class="cls-2" d="M10.17,70.53V41.84H2.24c-.35,0-.53-.09-.53-.26v-.09c0-.17.18-.26.53-.26h7.93V31.29c0-.26.09-.52.26-.52h.09c.26,0,.35.26.35.52v9.94h14c.35,0,.53.09.53.26v.09c0,.17-.18.26-.53.26H10.87V70.53c0,8.46,3.05,11.25,8.28,11.25A7.52,7.52,0,0,0,26.48,77a.41.41,0,0,1,.35.44A5.07,5.07,0,0,1,25.26,80a8,8,0,0,1-6.11,2.36C13.57,82.39,10.17,79.42,10.17,70.53Z"/><path class="cls-2" d="M19.15,84.1C12,84.1,8.46,79.66,8.46,70.53v-27H2.24a2,2,0,1,1,0-4H8.46V31.29a2.07,2.07,0,0,1,2-2.24,2.12,2.12,0,0,1,2.15,2.24v8.23H24.82a2,2,0,0,1,2.24,2,2,2,0,0,1-2.24,2.07H12.58v27c0,8.8,3.4,9.53,6.57,9.53a5.85,5.85,0,0,0,5.75-3.75,1.72,1.72,0,0,1,1.58-1,2.1,2.1,0,0,1,2.06,2.15,6.4,6.4,0,0,1-2.07,3.83A9.64,9.64,0,0,1,19.15,84.1Z"/><path class="cls-2" d="M32.87,71.92c0-8.54,7.5-12.2,31.83-12.2h.87V56.23c0-9.16-5.75-14.91-14.82-14.91-8,0-13.6,3.49-15.7,8.19a.4.4,0,0,1-.43-.43,9.06,9.06,0,0,1,2.44-3.49c2.44-2.44,6.45-4.88,13.69-4.88,9.59,0,15.52,5.93,15.52,15.52V81.78c0,.08-.09.17-.26.17-.35,0-.44-.35-.44-1V69.48C64.09,76.55,56.94,82.39,47,82.39,38.8,82.39,32.87,78.55,32.87,71.92Zm32.7-6.71V60.33H64.7c-23.8,0-31.13,3.48-31.13,11.59,0,6.28,5.58,9.86,13.43,9.86C57.12,81.78,65.57,75.15,65.57,65.21Z"/><path class="cls-2" d="M47,84.1c-9.48,0-15.84-4.89-15.84-12.18,0-10,8.88-13.83,32.7-13.92V56.23c0-8.14-5-13.2-13.11-13.2C44,43,38.59,45.78,36.62,50.21a1.71,1.71,0,0,1-1.57,1,2.13,2.13,0,0,1-2.15-2.15c0-1.74,2.83-4.58,3-4.7C39.47,40.76,44.34,39,50.75,39h0C61.22,39,68,45.76,68,56.23V81.78a1.92,1.92,0,0,1-2,1.89c-.51,0-2.15-.2-2.15-2.76V76.82C60.15,81.31,54,84.1,47,84.1ZM63.86,62c-23.76.09-28.57,3.85-28.57,9.88S41.34,80.06,47,80.06c9.61,0,16.86-6.38,16.86-14.85Z"/><path class="cls-2" d="M74.72,61.46C74.72,50,82.57,40.71,95,40.71c6.54,0,10.64,2.35,13.08,4.79,2.7,2.71,3.49,5.15,3.49,5.67,0,.35-.18.52-.44.52-1.31-4.53-6.28-10.37-16.13-10.37-12,0-19.62,9.07-19.62,20.14C75.42,72.8,83,81.78,95,81.78c9.85,0,14.82-5.84,16.13-10.38.26,0,.44.18.44.52,0,.53-.79,3-3.49,5.67-2.44,2.44-6.54,4.8-13.08,4.8C82.57,82.39,74.72,73.15,74.72,61.46Z"/><path class="cls-2" d="M95,84.1c-12.77,0-22-9.52-22-22.64S82.27,39,95,39c7.43,0,11.88,2.88,14.29,5.3,2.91,2.91,4,5.77,4,6.88a2.14,2.14,0,0,1-2.15,2.24,1.73,1.73,0,0,1-1.65-1.24C108.31,48,103.79,43,95,43,84.5,43,77.13,50.61,77.13,61.46S84.5,80.06,95,80.06c8.75,0,13.27-4.92,14.48-9.13a1.72,1.72,0,0,1,1.65-1.24,2.14,2.14,0,0,1,2.15,2.23c0,1.12-1.08,4-4,6.88C106.91,81.22,102.47,84.1,95,84.1Z"/><path class="cls-2" d="M121,81.52V23.44c0-.09.09-.17.26-.17.35,0,.44.35.44,1V60.15L145.44,41.4c.53-.43,1.05-.17,1,.09L122.6,60.24,148.5,81.6c.08.18-.35.61-1.05,0L121.73,60.33V81.52c0,.26-.09.43-.27.43h-.17C121.12,82,121,81.78,121,81.52Z"/><path class="cls-2" d="M121.46,83.67h-.17a2,2,0,0,1-2-2.15V23.44a1.92,1.92,0,0,1,2-1.89c.5,0,2.15.2,2.15,2.76v32.3l20.94-16.55a2.42,2.42,0,0,1,2.89-.23A1.92,1.92,0,0,1,148,42a1.72,1.72,0,0,1-.57.81L125.33,60.27l24.26,20a1.74,1.74,0,0,1,.44.56,1.9,1.9,0,0,1-.58,2.35,2.43,2.43,0,0,1-3.13-.29L123.44,64V81.52A2,2,0,0,1,121.46,83.67Zm25.08-40.95,0,0Z"/><path class="cls-2" d="M155.82,81.43v-58c0-.09.09-.17.26-.17.35,0,.44.35.44,1V81.43c0,.26-.09.52-.26.52h-.09C155.91,82,155.82,81.69,155.82,81.43Z"/><path class="cls-2" d="M156.26,83.67a2.13,2.13,0,0,1-2.15-2.24v-58a1.91,1.91,0,0,1,2-1.89c.51,0,2.15.2,2.15,2.76V81.43A2.07,2.07,0,0,1,156.26,83.67Z"/><path class="cls-2" d="M165.67,61.46c0-11.42,8.37-20.75,19.79-20.75,10.55,0,18,7.84,18,18.4v.08a.64.64,0,0,1-.7.7H166.36v1.57c0,11.34,7.59,20.32,19.62,20.32,9.86,0,14.83-5.84,16.13-10.38.27,0,.44.18.44.52,0,.53-.78,3-3.49,5.67-2.44,2.44-6.54,4.8-13.08,4.8C173.51,82.39,165.67,73.15,165.67,61.46Zm.78-2.18H202.9c0-10.38-7.32-18-17.44-18S167.41,49.34,166.45,59.28Z"/><path class="cls-2" d="M186,84.1c-12.76,0-22-9.52-22-22.64C164,48.86,173.4,39,185.46,39c11.45,0,19.76,8.46,19.76,20.12a2.37,2.37,0,0,1-2.41,2.49H168.08c.06,10.88,7.41,18.46,17.9,18.46,8.75,0,13.27-4.92,14.49-9.13a1.7,1.7,0,0,1,1.64-1.24,2.15,2.15,0,0,1,2.16,2.23c0,1.12-1.09,4-4,6.88C197.86,81.22,193.42,84.1,186,84.1ZM168.43,57.57h32.68C200.36,49.05,194,43,185.46,43A17.57,17.57,0,0,0,168.43,57.57Z"/><path class="cls-2" d="M212.32,81v-.17a.94.94,0,0,1,1-1h.17a.94.94,0,0,1,1,1V81a.94.94,0,0,1-1,1.05h-.17A.94.94,0,0,1,212.32,81Z"/><path class="cls-2" d="M213.45,83.75h-.17A2.65,2.65,0,0,1,210.61,81v-.17a2.65,2.65,0,0,1,2.67-2.76h.17a2.66,2.66,0,0,1,2.68,2.76V81A2.66,2.66,0,0,1,213.45,83.75Zm-.74-2.84a.66.66,0,1,0,.66-.58A.87.87,0,0,0,212.71,80.91Z"/><path class="cls-2" d="M224.42,81.52V41.58c0-.26.09-.44.26-.44h.18c.17,0,.26.18.26.44V81.52c0,.26-.09.43-.26.43h-.18C224.51,82,224.42,81.78,224.42,81.52Z"/><path class="cls-2" d="M224.86,83.67h-.18a2,2,0,0,1-2-2.15V41.58a2,2,0,0,1,2-2.15h.18a2,2,0,0,1,2,2.15V81.52A2,2,0,0,1,224.86,83.67Z"/><path class="cls-2" d="M235.41,61.55c0-11.51,8.37-20.84,20.4-20.84s20.32,9.41,20.32,21-8.37,20.67-20.32,20.67S235.41,73.15,235.41,61.55Zm40,.17c0-11.16-8.11-20.4-19.62-20.4s-19.7,9.15-19.7,20.23,8.11,20.23,19.7,20.23S275.43,72.8,275.43,61.72Z"/><path class="cls-2" d="M255.81,84.1c-12.61,0-22.12-9.69-22.12-22.55S243.2,39,255.81,39s22,9.77,22,22.73C277.85,74.48,268.37,84.1,255.81,84.1Zm0-41.07c-10.25,0-18,8-18,18.52s7.74,18.51,18,18.51,17.91-7.88,17.91-18.34C273.72,51.07,266,43,255.81,43Z"/></svg>